<svg class="rich-terminal" viewBox="0 0 1543 1562.8" xmlns="http://www.w3.org/2000/svg">
    <!-- Generated with Rich https://www.textualize.io -->
    <style>

    @font-face {
        font-family: "Fira Code";
        src: local("FiraCode-Regular"),
                url("https://cdnjs.cloudflare.com/ajax/libs/firacode/6.2.0/woff2/FiraCode-Regular.woff2") format("woff2"),
                url("https://cdnjs.cloudflare.com/ajax/libs/firacode/6.2.0/woff/FiraCode-Regular.woff") format("woff");
        font-style: normal;
        font-weight: 400;
    }
    @font-face {
        font-family: "Fira Code";
        src: local("FiraCode-Bold"),
                url("https://cdnjs.cloudflare.com/ajax/libs/firacode/6.2.0/woff2/FiraCode-Bold.woff2") format("woff2"),
                url("https://cdnjs.cloudflare.com/ajax/libs/firacode/6.2.0/woff/FiraCode-Bold.woff") format("woff");
        font-style: bold;
        font-weight: 700;
    }

    .terminal-3163883764-matrix {
        font-family: Fira Code, monospace;
        font-size: 20px;
        line-height: 24.4px;
        font-variant-east-asian: full-width;
    }

    .terminal-3163883764-title {
        font-size: 18px;
        font-weight: bold;
        font-family: arial;
    }

    .terminal-3163883764-r1 { fill: #c5c8c6 }
.terminal-3163883764-r2 { fill: #e0e0e0 }
.terminal-3163883764-r3 { fill: #c5c6c7 }
.terminal-3163883764-r4 { fill: #447b53 }
.terminal-3163883764-r5 { fill: #e76580 }
.terminal-3163883764-r6 { fill: #193320;font-weight: bold }
.terminal-3163883764-r7 { fill: #f5e5e9;font-weight: bold }
.terminal-3163883764-r8 { fill: #084724 }
.terminal-3163883764-r9 { fill: #780028 }
.terminal-3163883764-r10 { fill: #004578 }
.terminal-3163883764-r11 { fill: #121212 }
.terminal-3163883764-r12 { fill: #191919 }
.terminal-3163883764-r13 { fill: #b93c5b }
.terminal-3163883764-r14 { fill: #737373 }
    </style>

    <defs>
    <clipPath id="terminal-3163883764-clip-terminal">
      <rect x="0" y="0" width="1524.0" height="1511.8" />
    </clipPath>
    <clipPath id="terminal-3163883764-line-0">
    <rect x="0" y="1.5" width="1525" height="24.65"/>
            </clipPath>
<clipPath id="terminal-3163883764-line-1">
    <rect x="0" y="25.9" width="1525" height="24.65"/>
            </clipPath>
<clipPath id="terminal-3163883764-line-2">
    <rect x="0" y="50.3" width="1525" height="24.65"/>
            </clipPath>
<clipPath id="terminal-3163883764-line-3">
    <rect x="0" y="74.7" width="1525" height="24.65"/>
            </clipPath>
<clipPath id="terminal-3163883764-line-4">
    <rect x="0" y="99.1" width="1525" height="24.65"/>
            </clipPath>
<clipPath id="terminal-3163883764-line-5">
    <rect x="0" y="123.5" width="1525" height="24.65"/>
            </clipPath>
<clipPath id="terminal-3163883764-line-6">
    <rect x="0" y="147.9" width="1525" height="24.65"/>
            </clipPath>
<clipPath id="terminal-3163883764-line-7">
    <rect x="0" y="172.3" width="1525" height="24.65"/>
            </clipPath>
<clipPath id="terminal-3163883764-line-8">
    <rect x="0" y="196.7" width="1525" height="24.65"/>
            </clipPath>
<clipPath id="terminal-3163883764-line-9">
    <rect x="0" y="221.1" width="1525" height="24.65"/>
            </clipPath>
<clipPath id="terminal-3163883764-line-10">
    <rect x="0" y="245.5" width="1525" height="24.65"/>
            </clipPath>
<clipPath id="terminal-3163883764-line-11">
    <rect x="0" y="269.9" width="1525" height="24.65"/>
            </clipPath>
<clipPath id="terminal-3163883764-line-12">
    <rect x="0" y="294.3" width="1525" height="24.65"/>
            </clipPath>
<clipPath id="terminal-3163883764-line-13">
    <rect x="0" y="318.7" width="1525" height="24.65"/>
            </clipPath>
<clipPath id="terminal-3163883764-line-14">
    <rect x="0" y="343.1" width="1525" height="24.65"/>
            </clipPath>
<clipPath id="terminal-3163883764-line-15">
    <rect x="0" y="367.5" width="1525" height="24.65"/>
            </clipPath>
<clipPath id="terminal-3163883764-line-16">
    <rect x="0" y="391.9" width="1525" height="24.65"/>
            </clipPath>
<clipPath id="terminal-3163883764-line-17">
    <rect x="0" y="416.3" width="1525" height="24.65"/>
            </clipPath>
<clipPath id="terminal-3163883764-line-18">
    <rect x="0" y="440.7" width="1525" height="24.65"/>
            </clipPath>
<clipPath id="terminal-3163883764-line-19">
    <rect x="0" y="465.1" width="1525" height="24.65"/>
            </clipPath>
<clipPath id="terminal-3163883764-line-20">
    <rect x="0" y="489.5" width="1525" height="24.65"/>
            </clipPath>
<clipPath id="terminal-3163883764-line-21">
    <rect x="0" y="513.9" width="1525" height="24.65"/>
            </clipPath>
<clipPath id="terminal-3163883764-line-22">
    <rect x="0" y="538.3" width="1525" height="24.65"/>
            </clipPath>
<clipPath id="terminal-3163883764-line-23">
    <rect x="0" y="562.7" width="1525" height="24.65"/>
            </clipPath>
<clipPath id="terminal-3163883764-line-24">
    <rect x="0" y="587.1" width="1525" height="24.65"/>
            </clipPath>
<clipPath id="terminal-3163883764-line-25">
    <rect x="0" y="611.5" width="1525" height="24.65"/>
            </clipPath>
<clipPath id="terminal-3163883764-line-26">
    <rect x="0" y="635.9" width="1525" height="24.65"/>
            </clipPath>
<clipPath id="terminal-3163883764-line-27">
    <rect x="0" y="660.3" width="1525" height="24.65"/>
            </clipPath>
<clipPath id="terminal-3163883764-line-28">
    <rect x="0" y="684.7" width="1525" height="24.65"/>
            </clipPath>
<clipPath id="terminal-3163883764-line-29">
    <rect x="0" y="709.1" width="1525" height="24.65"/>
            </clipPath>
<clipPath id="terminal-3163883764-line-30">
    <rect x="0" y="733.5" width="1525" height="24.65"/>
            </clipPath>
<clipPath id="terminal-3163883764-line-31">
    <rect x="0" y="757.9" width="1525" height="24.65"/>
            </clipPath>
<clipPath id="terminal-3163883764-line-32">
    <rect x="0" y="782.3" width="1525" height="24.65"/>
            </clipPath>
<clipPath id="terminal-3163883764-line-33">
    <rect x="0" y="806.7" width="1525" height="24.65"/>
            </clipPath>
<clipPath id="terminal-3163883764-line-34">
    <rect x="0" y="831.1" width="1525" height="24.65"/>
            </clipPath>
<clipPath id="terminal-3163883764-line-35">
    <rect x="0" y="855.5" width="1525" height="24.65"/>
            </clipPath>
<clipPath id="terminal-3163883764-line-36">
    <rect x="0" y="879.9" width="1525" height="24.65"/>
            </clipPath>
<clipPath id="terminal-3163883764-line-37">
    <rect x="0" y="904.3" width="1525" height="24.65"/>
            </clipPath>
<clipPath id="terminal-3163883764-line-38">
    <rect x="0" y="928.7" width="1525" height="24.65"/>
            </clipPath>
<clipPath id="terminal-3163883764-line-39">
    <rect x="0" y="953.1" width="1525" height="24.65"/>
            </clipPath>
<clipPath id="terminal-3163883764-line-40">
    <rect x="0" y="977.5" width="1525" height="24.65"/>
            </clipPath>
<clipPath id="terminal-3163883764-line-41">
    <rect x="0" y="1001.9" width="1525" height="24.65"/>
            </clipPath>
<clipPath id="terminal-3163883764-line-42">
    <rect x="0" y="1026.3" width="1525" height="24.65"/>
            </clipPath>
<clipPath id="terminal-3163883764-line-43">
    <rect x="0" y="1050.7" width="1525" height="24.65"/>
            </clipPath>
<clipPath id="terminal-3163883764-line-44">
    <rect x="0" y="1075.1" width="1525" height="24.65"/>
            </clipPath>
<clipPath id="terminal-3163883764-line-45">
    <rect x="0" y="1099.5" width="1525" height="24.65"/>
            </clipPath>
<clipPath id="terminal-3163883764-line-46">
    <rect x="0" y="1123.9" width="1525" height="24.65"/>
            </clipPath>
<clipPath id="terminal-3163883764-line-47">
    <rect x="0" y="1148.3" width="1525" height="24.65"/>
            </clipPath>
<clipPath id="terminal-3163883764-line-48">
    <rect x="0" y="1172.7" width="1525" height="24.65"/>
            </clipPath>
<clipPath id="terminal-3163883764-line-49">
    <rect x="0" y="1197.1" width="1525" height="24.65"/>
            </clipPath>
<clipPath id="terminal-3163883764-line-50">
    <rect x="0" y="1221.5" width="1525" height="24.65"/>
            </clipPath>
<clipPath id="terminal-3163883764-line-51">
    <rect x="0" y="1245.9" width="1525" height="24.65"/>
            </clipPath>
<clipPath id="terminal-3163883764-line-52">
    <rect x="0" y="1270.3" width="1525" height="24.65"/>
            </clipPath>
<clipPath id="terminal-3163883764-line-53">
    <rect x="0" y="1294.7" width="1525" height="24.65"/>
            </clipPath>
<clipPath id="terminal-3163883764-line-54">
    <rect x="0" y="1319.1" width="1525" height="24.65"/>
            </clipPath>
<clipPath id="terminal-3163883764-line-55">
    <rect x="0" y="1343.5" width="1525" height="24.65"/>
            </clipPath>
<clipPath id="terminal-3163883764-line-56">
    <rect x="0" y="1367.9" width="1525" height="24.65"/>
            </clipPath>
<clipPath id="terminal-3163883764-line-57">
    <rect x="0" y="1392.3" width="1525" height="24.65"/>
            </clipPath>
<clipPath id="terminal-3163883764-line-58">
    <rect x="0" y="1416.7" width="1525" height="24.65"/>
            </clipPath>
<clipPath id="terminal-3163883764-line-59">
    <rect x="0" y="1441.1" width="1525" height="24.65"/>
            </clipPath>
<clipPath id="terminal-3163883764-line-60">
    <rect x="0" y="1465.5" width="1525" height="24.65"/>
            </clipPath>
    </defs>

    <rect fill="#292929" stroke="rgba(255,255,255,0.35)" stroke-width="1" x="1" y="1" width="1541" height="1560.8" rx="8"/><text class="terminal-3163883764-title" fill="#c5c8c6" text-anchor="middle" x="770" y="27">RadApp</text>
            <g transform="translate(26,22)">
            <circle cx="0" cy="0" r="7" fill="#ff5f57"/>
            <circle cx="22" cy="0" r="7" fill="#febc2e"/>
            <circle cx="44" cy="0" r="7" fill="#28c840"/>
            </g>

    <g transform="translate(9, 41)" clip-path="url(#terminal-3163883764-clip-terminal)">
    <rect fill="#242f38" x="0" y="1.5" width="12.2" height="24.65" shape-rendering="crispEdges"/><rect fill="#242f38" x="12.2" y="1.5" width="12.2" height="24.65" shape-rendering="crispEdges"/><rect fill="#242f38" x="24.4" y="1.5" width="61" height="24.65" shape-rendering="crispEdges"/><rect fill="#242f38" x="85.4" y="1.5" width="12.2" height="24.65" shape-rendering="crispEdges"/><rect fill="#242f38" x="97.6" y="1.5" width="610" height="24.65" shape-rendering="crispEdges"/><rect fill="#242f38" x="707.6" y="1.5" width="73.2" height="24.65" shape-rendering="crispEdges"/><rect fill="#242f38" x="780.8" y="1.5" width="622.2" height="24.65" shape-rendering="crispEdges"/><rect fill="#2c363f" x="1403" y="1.5" width="12.2" height="24.65" shape-rendering="crispEdges"/><rect fill="#2c363f" x="1415.2" y="1.5" width="97.6" height="24.65" shape-rendering="crispEdges"/><rect fill="#2c363f" x="1512.8" y="1.5" width="12.2" height="24.65" shape-rendering="crispEdges"/><rect fill="#2f6640" x="0" y="25.9" width="219.6" height="24.65" shape-rendering="crispEdges"/><rect fill="#b93c5b" x="219.6" y="25.9" width="195.2" height="24.65" shape-rendering="crispEdges"/><rect fill="#121212" x="414.8" y="25.9" width="1110.2" height="24.65" shape-rendering="crispEdges"/><rect fill="#2f6640" x="0" y="50.3" width="219.6" height="24.65" shape-rendering="crispEdges"/><rect fill="#b93c5b" x="219.6" y="50.3" width="48.8" height="24.65" shape-rendering="crispEdges"/><rect fill="#b93c5b" x="268.4" y="50.3" width="97.6" height="24.65" shape-rendering="crispEdges"/><rect fill="#b93c5b" x="366" y="50.3" width="48.8" height="24.65" shape-rendering="crispEdges"/><rect fill="#121212" x="414.8" y="50.3" width="1110.2" height="24.65" shape-rendering="crispEdges"/><rect fill="#2f6640" x="0" y="74.7" width="219.6" height="24.65" shape-rendering="crispEdges"/><rect fill="#b93c5b" x="219.6" y="74.7" width="195.2" height="24.65" shape-rendering="crispEdges"/><rect fill="#121212" x="414.8" y="74.7" width="1110.2" height="24.65" shape-rendering="crispEdges"/><rect fill="#121212" x="0" y="99.1" width="1525" height="24.65" shape-rendering="crispEdges"/><rect fill="#121212" x="0" y="123.5" width="1525" height="24.65" shape-rendering="crispEdges"/><rect fill="#121212" x="0" y="147.9" width="1525" height="24.65" shape-rendering="crispEdges"/><rect fill="#121212" x="0" y="172.3" width="890.6" height="24.65" shape-rendering="crispEdges"/><rect fill="#121212" x="890.6" y="172.3" width="634.4" height="24.65" shape-rendering="crispEdges"/><rect fill="#121212" x="0" y="196.7" width="24.4" height="24.65" shape-rendering="crispEdges"/><rect fill="#121212" x="24.4" y="196.7" width="841.8" height="24.65" shape-rendering="crispEdges"/><rect fill="#121212" x="866.2" y="196.7" width="24.4" height="24.65" shape-rendering="crispEdges"/><rect fill="#121212" x="890.6" y="196.7" width="634.4" height="24.65" shape-rendering="crispEdges"/><rect fill="#121212" x="0" y="221.1" width="890.6" height="24.65" shape-rendering="crispEdges"/><rect fill="#121212" x="890.6" y="221.1" width="634.4" height="24.65" shape-rendering="crispEdges"/><rect fill="#121212" x="0" y="245.5" width="1525" height="24.65" shape-rendering="crispEdges"/><rect fill="#121212" x="0" y="269.9" width="1525" height="24.65" shape-rendering="crispEdges"/><rect fill="#121212" x="0" y="294.3" width="1525" height="24.65" shape-rendering="crispEdges"/><rect fill="#121212" x="0" y="318.7" width="890.6" height="24.65" shape-rendering="crispEdges"/><rect fill="#191919" x="890.6" y="318.7" width="12.2" height="24.65" shape-rendering="crispEdges"/><rect fill="#1e1e1e" x="902.8" y="318.7" width="622.2" height="24.65" shape-rendering="crispEdges"/><rect fill="#121212" x="0" y="343.1" width="24.4" height="24.65" shape-rendering="crispEdges"/><rect fill="#121212" x="24.4" y="343.1" width="719.8" height="24.65" shape-rendering="crispEdges"/><rect fill="#121212" x="744.2" y="343.1" width="122" height="24.65" shape-rendering="crispEdges"/><rect fill="#121212" x="866.2" y="343.1" width="24.4" height="24.65" shape-rendering="crispEdges"/><rect fill="#191919" x="890.6" y="343.1" width="12.2" height="24.65" shape-rendering="crispEdges"/><rect fill="#1e1e1e" x="902.8" y="343.1" width="24.4" height="24.65" shape-rendering="crispEdges"/><rect fill="#1e1e1e" x="927.2" y="343.1" width="61" height="24.65" shape-rendering="crispEdges"/><rect fill="#1e1e1e" x="988.2" y="343.1" width="536.8" height="24.65" shape-rendering="crispEdges"/><rect fill="#121212" x="0" y="367.5" width="890.6" height="24.65" shape-rendering="crispEdges"/><rect fill="#191919" x="890.6" y="367.5" width="12.2" height="24.65" shape-rendering="crispEdges"/><rect fill="#1e1e1e" x="902.8" y="367.5" width="622.2" height="24.65" shape-rendering="crispEdges"/><rect fill="#121212" x="0" y="391.9" width="890.6" height="24.65" shape-rendering="crispEdges"/><rect fill="#b93c5b" x="890.6" y="391.9" width="12.2" height="24.65" shape-rendering="crispEdges"/><rect fill="#272727" x="902.8" y="391.9" width="622.2" height="24.65" shape-rendering="crispEdges"/><rect fill="#121212" x="0" y="416.3" width="24.4" height="24.65" shape-rendering="crispEdges"/><rect fill="#121212" x="24.4" y="416.3" width="658.8" height="24.65" shape-rendering="crispEdges"/><rect fill="#121212" x="683.2" y="416.3" width="183" height="24.65" shape-rendering="crispEdges"/><rect fill="#121212" x="866.2" y="416.3" width="24.4" height="24.65" shape-rendering="crispEdges"/><rect fill="#b93c5b" x="890.6" y="416.3" width="12.2" height="24.65" shape-rendering="crispEdges"/><rect fill="#272727" x="902.8" y="416.3" width="24.4" height="24.65" shape-rendering="crispEdges"/><rect fill="#272727" x="927.2" y="416.3" width="48.8" height="24.65" shape-rendering="crispEdges"/><rect fill="#272727" x="976" y="416.3" width="549" height="24.65" shape-rendering="crispEdges"/><rect fill="#121212" x="0" y="440.7" width="890.6" height="24.65" shape-rendering="crispEdges"/><rect fill="#b93c5b" x="890.6" y="440.7" width="12.2" height="24.65" shape-rendering="crispEdges"/><rect fill="#272727" x="902.8" y="440.7" width="622.2" height="24.65" shape-rendering="crispEdges"/><rect fill="#121212" x="0" y="465.1" width="890.6" height="24.65" shape-rendering="crispEdges"/><rect fill="#191919" x="890.6" y="465.1" width="12.2" height="24.65" shape-rendering="crispEdges"/><rect fill="#1e1e1e" x="902.8" y="465.1" width="622.2" height="24.65" shape-rendering="crispEdges"/><rect fill="#121212" x="0" y="489.5" width="24.4" height="24.65" shape-rendering="crispEdges"/><rect fill="#121212" x="24.4" y="489.5" width="768.6" height="24.65" shape-rendering="crispEdges"/><rect fill="#121212" x="793" y="489.5" width="73.2" height="24.65" shape-rendering="crispEdges"/><rect fill="#121212" x="866.2" y="489.5" width="24.4" height="24.65" shape-rendering="crispEdges"/><rect fill="#191919" x="890.6" y="489.5" width="12.2" height="24.65" shape-rendering="crispEdges"/><rect fill="#1e1e1e" x="902.8" y="489.5" width="24.4" height="24.65" shape-rendering="crispEdges"/><rect fill="#1e1e1e" x="927.2" y="489.5" width="61" height="24.65" shape-rendering="crispEdges"/><rect fill="#1e1e1e" x="988.2" y="489.5" width="536.8" height="24.65" shape-rendering="crispEdges"/><rect fill="#121212" x="0" y="513.9" width="890.6" height="24.65" shape-rendering="crispEdges"/><rect fill="#191919" x="890.6" y="513.9" width="12.2" height="24.65" shape-rendering="crispEdges"/><rect fill="#1e1e1e" x="902.8" y="513.9" width="622.2" height="24.65" shape-rendering="crispEdges"/><rect fill="#121212" x="0" y="538.3" width="890.6" height="24.65" shape-rendering="crispEdges"/><rect fill="#191919" x="890.6" y="538.3" width="12.2" height="24.65" shape-rendering="crispEdges"/><rect fill="#1e1e1e" x="902.8" y="538.3" width="622.2" height="24.65" shape-rendering="crispEdges"/><rect fill="#121212" x="0" y="562.7" width="24.4" height="24.65" shape-rendering="crispEdges"/><rect fill="#121212" x="24.4" y="562.7" width="768.6" height="24.65" shape-rendering="crispEdges"/><rect fill="#121212" x="793" y="562.7" width="73.2" height="24.65" shape-rendering="crispEdges"/><rect fill="#121212" x="866.2" y="562.7" width="24.4" height="24.65" shape-rendering="crispEdges"/><rect fill="#191919" x="890.6" y="562.7" width="12.2" height="24.65" shape-rendering="crispEdges"/><rect fill="#1e1e1e" x="902.8" y="562.7" width="24.4" height="24.65" shape-rendering="crispEdges"/><rect fill="#1e1e1e" x="927.2" y="562.7" width="61" height="24.65" shape-rendering="crispEdges"/><rect fill="#1e1e1e" x="988.2" y="562.7" width="536.8" height="24.65" shape-rendering="crispEdges"/><rect fill="#121212" x="0" y="587.1" width="890.6" height="24.65" shape-rendering="crispEdges"/><rect fill="#191919" x="890.6" y="587.1" width="12.2" height="24.65" shape-rendering="crispEdges"/><rect fill="#1e1e1e" x="902.8" y="587.1" width="622.2" height="24.65" shape-rendering="crispEdges"/><rect fill="#121212" x="0" y="611.5" width="890.6" height="24.65" shape-rendering="crispEdges"/><rect fill="#191919" x="890.6" y="611.5" width="12.2" height="24.65" shape-rendering="crispEdges"/><rect fill="#1e1e1e" x="902.8" y="611.5" width="622.2" height="24.65" shape-rendering="crispEdges"/><rect fill="#121212" x="0" y="635.9" width="24.4" height="24.65" shape-rendering="crispEdges"/><rect fill="#121212" x="24.4" y="635.9" width="719.8" height="24.65" shape-rendering="crispEdges"/><rect fill="#121212" x="744.2" y="635.9" width="122" height="24.65" shape-rendering="crispEdges"/><rect fill="#121212" x="866.2" y="635.9" width="24.4" height="24.65" shape-rendering="crispEdges"/><rect fill="#191919" x="890.6" y="635.9" width="12.2" height="24.65" shape-rendering="crispEdges"/><rect fill="#1e1e1e" x="902.8" y="635.9" width="24.4" height="24.65" shape-rendering="crispEdges"/><rect fill="#1e1e1e" x="927.2" y="635.9" width="61" height="24.65" shape-rendering="crispEdges"/><rect fill="#1e1e1e" x="988.2" y="635.9" width="536.8" height="24.65" shape-rendering="crispEdges"/><rect fill="#121212" x="0" y="660.3" width="890.6" height="24.65" shape-rendering="crispEdges"/><rect fill="#191919" x="890.6" y="660.3" width="12.2" height="24.65" shape-rendering="crispEdges"/><rect fill="#1e1e1e" x="902.8" y="660.3" width="622.2" height="24.65" shape-rendering="crispEdges"/><rect fill="#121212" x="0" y="684.7" width="890.6" height="24.65" shape-rendering="crispEdges"/><rect fill="#191919" x="890.6" y="684.7" width="12.2" height="24.65" shape-rendering="crispEdges"/><rect fill="#1e1e1e" x="902.8" y="684.7" width="622.2" height="24.65" shape-rendering="crispEdges"/><rect fill="#121212" x="0" y="709.1" width="24.4" height="24.65" shape-rendering="crispEdges"/><rect fill="#121212" x="24.4" y="709.1" width="707.6" height="24.65" shape-rendering="crispEdges"/><rect fill="#121212" x="732" y="709.1" width="134.2" height="24.65" shape-rendering="crispEdges"/><rect fill="#121212" x="866.2" y="709.1" width="24.4" height="24.65" shape-rendering="crispEdges"/><rect fill="#191919" x="890.6" y="709.1" width="12.2" height="24.65" shape-rendering="crispEdges"/><rect fill="#1e1e1e" x="902.8" y="709.1" width="24.4" height="24.65" shape-rendering="crispEdges"/><rect fill="#1e1e1e" x="927.2" y="709.1" width="61" height="24.65" shape-rendering="crispEdges"/><rect fill="#1e1e1e" x="988.2" y="709.1" width="536.8" height="24.65" shape-rendering="crispEdges"/><rect fill="#121212" x="0" y="733.5" width="890.6" height="24.65" shape-rendering="crispEdges"/><rect fill="#191919" x="890.6" y="733.5" width="12.2" height="24.65" shape-rendering="crispEdges"/><rect fill="#1e1e1e" x="902.8" y="733.5" width="622.2" height="24.65" shape-rendering="crispEdges"/><rect fill="#121212" x="0" y="757.9" width="890.6" height="24.65" shape-rendering="crispEdges"/><rect fill="#191919" x="890.6" y="757.9" width="12.2" height="24.65" shape-rendering="crispEdges"/><rect fill="#1e1e1e" x="902.8" y="757.9" width="622.2" height="24.65" shape-rendering="crispEdges"/><rect fill="#121212" x="0" y="782.3" width="24.4" height="24.65" shape-rendering="crispEdges"/><rect fill="#121212" x="24.4" y="782.3" width="671" height="24.65" shape-rendering="crispEdges"/><rect fill="#121212" x="695.4" y="782.3" width="170.8" height="24.65" shape-rendering="crispEdges"/><rect fill="#121212" x="866.2" y="782.3" width="24.4" height="24.65" shape-rendering="crispEdges"/><rect fill="#191919" x="890.6" y="782.3" width="12.2" height="24.65" shape-rendering="crispEdges"/><rect fill="#1e1e1e" x="902.8" y="782.3" width="24.4" height="24.65" shape-rendering="crispEdges"/><rect fill="#1e1e1e" x="927.2" y="782.3" width="61" height="24.65" shape-rendering="crispEdges"/><rect fill="#1e1e1e" x="988.2" y="782.3" width="536.8" height="24.65" shape-rendering="crispEdges"/><rect fill="#121212" x="0" y="806.7" width="890.6" height="24.65" shape-rendering="crispEdges"/><rect fill="#191919" x="890.6" y="806.7" width="12.2" height="24.65" shape-rendering="crispEdges"/><rect fill="#1e1e1e" x="902.8" y="806.7" width="622.2" height="24.65" shape-rendering="crispEdges"/><rect fill="#121212" x="0" y="831.1" width="1525" height="24.65" shape-rendering="crispEdges"/><rect fill="#121212" x="0" y="855.5" width="1525" height="24.65" shape-rendering="crispEdges"/><rect fill="#121212" x="0" y="879.9" width="1525" height="24.65" shape-rendering="crispEdges"/><rect fill="#121212" x="0" y="904.3" width="1525" height="24.65" shape-rendering="crispEdges"/><rect fill="#121212" x="0" y="928.7" width="1525" height="24.65" shape-rendering="crispEdges"/><rect fill="#121212" x="0" y="953.1" width="1525" height="24.65" shape-rendering="crispEdges"/><rect fill="#121212" x="0" y="977.5" width="1525" height="24.65" shape-rendering="crispEdges"/><rect fill="#121212" x="0" y="1001.9" width="1525" height="24.65" shape-rendering="crispEdges"/><rect fill="#121212" x="0" y="1026.3" width="1525" height="24.65" shape-rendering="crispEdges"/><rect fill="#121212" x="0" y="1050.7" width="1525" height="24.65" shape-rendering="crispEdges"/><rect fill="#121212" x="0" y="1075.1" width="1525" height="24.65" shape-rendering="crispEdges"/><rect fill="#121212" x="0" y="1099.5" width="1525" height="24.65" shape-rendering="crispEdges"/><rect fill="#121212" x="0" y="1123.9" width="1525" height="24.65" shape-rendering="crispEdges"/><rect fill="#121212" x="0" y="1148.3" width="1525" height="24.65" shape-rendering="crispEdges"/><rect fill="#121212" x="0" y="1172.7" width="1525" height="24.65" shape-rendering="crispEdges"/><rect fill="#121212" x="0" y="1197.1" width="1525" height="24.65" shape-rendering="crispEdges"/><rect fill="#121212" x="0" y="1221.5" width="1525" height="24.65" shape-rendering="crispEdges"/><rect fill="#121212" x="0" y="1245.9" width="1525" height="24.65" shape-rendering="crispEdges"/><rect fill="#121212" x="0" y="1270.3" width="1525" height="24.65" shape-rendering="crispEdges"/><rect fill="#121212" x="0" y="1294.7" width="1525" height="24.65" shape-rendering="crispEdges"/><rect fill="#121212" x="0" y="1319.1" width="1525" height="24.65" shape-rendering="crispEdges"/><rect fill="#121212" x="0" y="1343.5" width="1525" height="24.65" shape-rendering="crispEdges"/><rect fill="#121212" x="0" y="1367.9" width="1525" height="24.65" shape-rendering="crispEdges"/><rect fill="#121212" x="0" y="1392.3" width="1525" height="24.65" shape-rendering="crispEdges"/><rect fill="#121212" x="0" y="1416.7" width="1525" height="24.65" shape-rendering="crispEdges"/><rect fill="#121212" x="0" y="1441.1" width="1525" height="24.65" shape-rendering="crispEdges"/><rect fill="#121212" x="0" y="1465.5" width="1525" height="24.65" shape-rendering="crispEdges"/><rect fill="#242f38" x="0" y="1489.9" width="1378.6" height="24.65" shape-rendering="crispEdges"/><rect fill="#242f38" x="1378.6" y="1489.9" width="146.4" height="24.65" shape-rendering="crispEdges"/>
    <g class="terminal-3163883764-matrix">
    <text class="terminal-3163883764-r2" x="12.2" y="20" textLength="12.2" clip-path="url(#terminal-3163883764-line-0)">⭘</text><text class="terminal-3163883764-r2" x="707.6" y="20" textLength="73.2" clip-path="url(#terminal-3163883764-line-0)">RadApp</text><text class="terminal-3163883764-r3" x="1415.2" y="20" textLength="97.6" clip-path="url(#terminal-3163883764-line-0)">12:34:08</text><text class="terminal-3163883764-r1" x="1525" y="20" textLength="12.2" clip-path="url(#terminal-3163883764-line-0)">
</text><text class="terminal-3163883764-r4" x="0" y="44.4" textLength="219.6" clip-path="url(#terminal-3163883764-line-1)">▔▔▔▔▔▔▔▔▔▔▔▔▔▔▔▔▔▔</text><text class="terminal-3163883764-r5" x="219.6" y="44.4" textLength="195.2" clip-path="url(#terminal-3163883764-line-1)">▔▔▔▔▔▔▔▔▔▔▔▔▔▔▔▔</text><text class="terminal-3163883764-r1" x="1525" y="44.4" textLength="12.2" clip-path="url(#terminal-3163883764-line-1)">
</text><text class="terminal-3163883764-r6" x="0" y="68.8" textLength="219.6" clip-path="url(#terminal-3163883764-line-2)">&#160;Bump&#160;Resource(s)&#160;</text><text class="terminal-3163883764-r7" x="268.4" y="68.8" textLength="97.6" clip-path="url(#terminal-3163883764-line-2)">&#160;Return&#160;</text><text class="terminal-3163883764-r1" x="1525" y="68.8" textLength="12.2" clip-path="url(#terminal-3163883764-line-2)">
</text><text class="terminal-3163883764-r8" x="0" y="93.2" textLength="219.6" clip-path="url(#terminal-3163883764-line-3)">▁▁▁▁▁▁▁▁▁▁▁▁▁▁▁▁▁▁</text><text class="terminal-3163883764-r9" x="219.6" y="93.2" textLength="195.2" clip-path="url(#terminal-3163883764-line-3)">▁▁▁▁▁▁▁▁▁▁▁▁▁▁▁▁</text><text class="terminal-3163883764-r1" x="1525" y="93.2" textLength="12.2" clip-path="url(#terminal-3163883764-line-3)">
</text><text class="terminal-3163883764-r1" x="1525" y="117.6" textLength="12.2" clip-path="url(#terminal-3163883764-line-4)">
</text><text class="terminal-3163883764-r10" x="0" y="142" textLength="1525" clip-path="url(#terminal-3163883764-line-5)">─────────────────────────────────────────────────────────────────────────────────────────────────────────────────────────────</text><text class="terminal-3163883764-r1" x="1525" y="142" textLength="12.2" clip-path="url(#terminal-3163883764-line-5)">
</text><text class="terminal-3163883764-r1" x="1525" y="166.4" textLength="12.2" clip-path="url(#terminal-3163883764-line-6)">
</text><text class="terminal-3163883764-r1" x="1525" y="190.8" textLength="12.2" clip-path="url(#terminal-3163883764-line-7)">
</text><text class="terminal-3163883764-r2" x="24.4" y="215.2" textLength="841.8" clip-path="url(#terminal-3163883764-line-8)">Please&#160;fill&#160;in&#160;the&#160;new&#160;version&#160;number&#160;for&#160;each&#160;resource&#160;listed&#160;below:</text><text class="terminal-3163883764-r1" x="1525" y="215.2" textLength="12.2" clip-path="url(#terminal-3163883764-line-8)">
</text><text class="terminal-3163883764-r1" x="1525" y="239.6" textLength="12.2" clip-path="url(#terminal-3163883764-line-9)">
</text><text class="terminal-3163883764-r1" x="1525" y="264" textLength="12.2" clip-path="url(#terminal-3163883764-line-10)">
</text><text class="terminal-3163883764-r10" x="0" y="288.4" textLength="1525" clip-path="url(#terminal-3163883764-line-11)">─────────────────────────────────────────────────────────────────────────────────────────────────────────────────────────────</text><text class="terminal-3163883764-r1" x="1525" y="288.4" textLength="12.2" clip-path="url(#terminal-3163883764-line-11)">
</text><text class="terminal-3163883764-r1" x="1525" y="312.8" textLength="12.2" clip-path="url(#terminal-3163883764-line-12)">
</text><text class="terminal-3163883764-r11" x="890.6" y="337.2" textLength="12.2" clip-path="url(#terminal-3163883764-line-13)">▊</text><text class="terminal-3163883764-r12" x="902.8" y="337.2" textLength="622.2" clip-path="url(#terminal-3163883764-line-13)">▔▔▔▔▔▔▔▔▔▔▔▔▔▔▔▔▔▔▔▔▔▔▔▔▔▔▔▔▔▔▔▔▔▔▔▔▔▔▔▔▔▔▔▔▔▔▔▔▔▔▔</text><text class="terminal-3163883764-r1" x="1525" y="337.2" textLength="12.2" clip-path="url(#terminal-3163883764-line-13)">
</text><text class="terminal-3163883764-r2" x="24.4" y="361.6" textLength="719.8" clip-path="url(#terminal-3163883764-line-14)">asdf://stsci.edu/datamodels/roman/schemas/coordinates-1.0.0</text><text class="terminal-3163883764-r11" x="890.6" y="361.6" textLength="12.2" clip-path="url(#terminal-3163883764-line-14)">▊</text><text class="terminal-3163883764-r2" x="927.2" y="361.6" textLength="61" clip-path="url(#terminal-3163883764-line-14)">1.1.0</text><text class="terminal-3163883764-r1" x="1525" y="361.6" textLength="12.2" clip-path="url(#terminal-3163883764-line-14)">
</text><text class="terminal-3163883764-r11" x="890.6" y="386" textLength="12.2" clip-path="url(#terminal-3163883764-line-15)">▊</text><text class="terminal-3163883764-r12" x="902.8" y="386" textLength="622.2" clip-path="url(#terminal-3163883764-line-15)">▁▁▁▁▁▁▁▁▁▁▁▁▁▁▁▁▁▁▁▁▁▁▁▁▁▁▁▁▁▁▁▁▁▁▁▁▁▁▁▁▁▁▁▁▁▁▁▁▁▁▁</text><text class="terminal-3163883764-r1" x="1525" y="386" textLength="12.2" clip-path="url(#terminal-3163883764-line-15)">
</text><text class="terminal-3163883764-r11" x="890.6" y="410.4" textLength="12.2" clip-path="url(#terminal-3163883764-line-16)">▊</text><text class="terminal-3163883764-r13" x="902.8" y="410.4" textLength="622.2" clip-path="url(#terminal-3163883764-line-16)">▔▔▔▔▔▔▔▔▔▔▔▔▔▔▔▔▔▔▔▔▔▔▔▔▔▔▔▔▔▔▔▔▔▔▔▔▔▔▔▔▔▔▔▔▔▔▔▔▔▔▔</text><text class="terminal-3163883764-r1" x="1525" y="410.4" textLength="12.2" clip-path="url(#terminal-3163883764-line-16)">
</text><text class="terminal-3163883764-r2" x="24.4" y="434.8" textLength="658.8" clip-path="url(#terminal-3163883764-line-17)">asdf://stsci.edu/datamodels/roman/schemas/common-1.2.0</text><text class="terminal-3163883764-r11" x="890.6" y="434.8" textLength="12.2" clip-path="url(#terminal-3163883764-line-17)">▊</text><text class="terminal-3163883764-r2" x="927.2" y="434.8" textLength="48.8" clip-path="url(#terminal-3163883764-line-17)">1.2.</text><text class="terminal-3163883764-r1" x="1525" y="434.8" textLength="12.2" clip-path="url(#terminal-3163883764-line-17)">
</text><text class="terminal-3163883764-r11" x="890.6" y="459.2" textLength="12.2" clip-path="url(#terminal-3163883764-line-18)">▊</text><text class="terminal-3163883764-r13" x="902.8" y="459.2" textLength="622.2" clip-path="url(#terminal-3163883764-line-18)">▁▁▁▁▁▁▁▁▁▁▁▁▁▁▁▁▁▁▁▁▁▁▁▁▁▁▁▁▁▁▁▁▁▁▁▁▁▁▁▁▁▁▁▁▁▁▁▁▁▁▁</text><text class="terminal-3163883764-r1" x="1525" y="459.2" textLength="12.2" clip-path="url(#terminal-3163883764-line-18)">
</text><text class="terminal-3163883764-r11" x="890.6" y="483.6" textLength="12.2" clip-path="url(#terminal-3163883764-line-19)">▊</text><text class="terminal-3163883764-r12" x="902.8" y="483.6" textLength="622.2" clip-path="url(#terminal-3163883764-line-19)">▔▔▔▔▔▔▔▔▔▔▔▔▔▔▔▔▔▔▔▔▔▔▔▔▔▔▔▔▔▔▔▔▔▔▔▔▔▔▔▔▔▔▔▔▔▔▔▔▔▔▔</text><text class="terminal-3163883764-r1" x="1525" y="483.6" textLength="12.2" clip-path="url(#terminal-3163883764-line-19)">
</text><text class="terminal-3163883764-r2" x="24.4" y="508" textLength="768.6" clip-path="url(#terminal-3163883764-line-20)">asdf://stsci.edu/datamodels/roman/schemas/wfi_science_raw-1.2.0</text><text class="terminal-3163883764-r11" x="890.6" y="508" textLength="12.2" clip-path="url(#terminal-3163883764-line-20)">▊</text><text class="terminal-3163883764-r14" x="927.2" y="508" textLength="61" clip-path="url(#terminal-3163883764-line-20)">a.b.c</text><text class="terminal-3163883764-r1" x="1525" y="508" textLength="12.2" clip-path="url(#terminal-3163883764-line-20)">
</text><text class="terminal-3163883764-r11" x="890.6" y="532.4" textLength="12.2" clip-path="url(#terminal-3163883764-line-21)">▊</text><text class="terminal-3163883764-r12" x="902.8" y="532.4" textLength="622.2" clip-path="url(#terminal-3163883764-line-21)">▁▁▁▁▁▁▁▁▁▁▁▁▁▁▁▁▁▁▁▁▁▁▁▁▁▁▁▁▁▁▁▁▁▁▁▁▁▁▁▁▁▁▁▁▁▁▁▁▁▁▁</text><text class="terminal-3163883764-r1" x="1525" y="532.4" textLength="12.2" clip-path="url(#terminal-3163883764-line-21)">
</text><text class="terminal-3163883764-r11" x="890.6" y="556.8" textLength="12.2" clip-path="url(#terminal-3163883764-line-22)">▊</text><text class="terminal-3163883764-r12" x="902.8" y="556.8" textLength="622.2" clip-path="url(#terminal-3163883764-line-22)">▔▔▔▔▔▔▔▔▔▔▔▔▔▔▔▔▔▔▔▔▔▔▔▔▔▔▔▔▔▔▔▔▔▔▔▔▔▔▔▔▔▔▔▔▔▔▔▔▔▔▔</text><text class="terminal-3163883764-r1" x="1525" y="556.8" textLength="12.2" clip-path="url(#terminal-3163883764-line-22)">
</text><text class="terminal-3163883764-r2" x="24.4" y="581.2" textLength="768.6" clip-path="url(#terminal-3163883764-line-23)">asdf://stsci.edu/datamodels/roman/schemas/ramp_fit_output-1.2.0</text><text class="terminal-3163883764-r11" x="890.6" y="581.2" textLength="12.2" clip-path="url(#terminal-3163883764-line-23)">▊</text><text class="terminal-3163883764-r14" x="927.2" y="581.2" textLength="61" clip-path="url(#terminal-3163883764-line-23)">a.b.c</text><text class="terminal-3163883764-r1" x="1525" y="581.2" textLength="12.2" clip-path="url(#terminal-3163883764-line-23)">
</text><text class="terminal-3163883764-r11" x="890.6" y="605.6" textLength="12.2" clip-path="url(#terminal-3163883764-line-24)">▊</text><text class="terminal-3163883764-r12" x="902.8" y="605.6" textLength="622.2" clip-path="url(#terminal-3163883764-line-24)">▁▁▁▁▁▁▁▁▁▁▁▁▁▁▁▁▁▁▁▁▁▁▁▁▁▁▁▁▁▁▁▁▁▁▁▁▁▁▁▁▁▁▁▁▁▁▁▁▁▁▁</text><text class="terminal-3163883764-r1" x="1525" y="605.6" textLength="12.2" clip-path="url(#terminal-3163883764-line-24)">
</text><text class="terminal-3163883764-r11" x="890.6" y="630" textLength="12.2" clip-path="url(#terminal-3163883764-line-25)">▊</text><text class="terminal-3163883764-r12" x="902.8" y="630" textLength="622.2" clip-path="url(#terminal-3163883764-line-25)">▔▔▔▔▔▔▔▔▔▔▔▔▔▔▔▔▔▔▔▔▔▔▔▔▔▔▔▔▔▔▔▔▔▔▔▔▔▔▔▔▔▔▔▔▔▔▔▔▔▔▔</text><text class="terminal-3163883764-r1" x="1525" y="630" textLength="12.2" clip-path="url(#terminal-3163883764-line-25)">
</text><text class="terminal-3163883764-r2" x="24.4" y="654.4" textLength="719.8" clip-path="url(#terminal-3163883764-line-26)">asdf://stsci.edu/datamodels/roman/schemas/guidewindow-1.2.0</text><text class="terminal-3163883764-r11" x="890.6" y="654.4" textLength="12.2" clip-path="url(#terminal-3163883764-line-26)">▊</text><text class="terminal-3163883764-r14" x="927.2" y="654.4" textLength="61" clip-path="url(#terminal-3163883764-line-26)">a.b.c</text><text class="terminal-3163883764-r1" x="1525" y="654.4" textLength="12.2" clip-path="url(#terminal-3163883764-line-26)">
</text><text class="terminal-3163883764-r11" x="890.6" y="678.8" textLength="12.2" clip-path="url(#terminal-3163883764-line-27)">▊</text><text class="terminal-3163883764-r12" x="902.8" y="678.8" textLength="622.2" clip-path="url(#terminal-3163883764-line-27)">▁▁▁▁▁▁▁▁▁▁▁▁▁▁▁▁▁▁▁▁▁▁▁▁▁▁▁▁▁▁▁▁▁▁▁▁▁▁▁▁▁▁▁▁▁▁▁▁▁▁▁</text><text class="terminal-3163883764-r1" x="1525" y="678.8" textLength="12.2" clip-path="url(#terminal-3163883764-line-27)">
</text><text class="terminal-3163883764-r11" x="890.6" y="703.2" textLength="12.2" clip-path="url(#terminal-3163883764-line-28)">▊</text><text class="terminal-3163883764-r12" x="902.8" y="703.2" textLength="622.2" clip-path="url(#terminal-3163883764-line-28)">▔▔▔▔▔▔▔▔▔▔▔▔▔▔▔▔▔▔▔▔▔▔▔▔▔▔▔▔▔▔▔▔▔▔▔▔▔▔▔▔▔▔▔▔▔▔▔▔▔▔▔</text><text class="terminal-3163883764-r1" x="1525" y="703.2" textLength="12.2" clip-path="url(#terminal-3163883764-line-28)">
</text><text class="terminal-3163883764-r2" x="24.4" y="727.6" textLength="707.6" clip-path="url(#terminal-3163883764-line-29)">asdf://stsci.edu/datamodels/roman/schemas/msos_stack-1.2.0</text><text class="terminal-3163883764-r11" x="890.6" y="727.6" textLength="12.2" clip-path="url(#terminal-3163883764-line-29)">▊</text><text class="terminal-3163883764-r14" x="927.2" y="727.6" textLength="61" clip-path="url(#terminal-3163883764-line-29)">a.b.c</text><text class="terminal-3163883764-r1" x="1525" y="727.6" textLength="12.2" clip-path="url(#terminal-3163883764-line-29)">
</text><text class="terminal-3163883764-r11" x="890.6" y="752" textLength="12.2" clip-path="url(#terminal-3163883764-line-30)">▊</text><text class="terminal-3163883764-r12" x="902.8" y="752" textLength="622.2" clip-path="url(#terminal-3163883764-line-30)">▁▁▁▁▁▁▁▁▁▁▁▁▁▁▁▁▁▁▁▁▁▁▁▁▁▁▁▁▁▁▁▁▁▁▁▁▁▁▁▁▁▁▁▁▁▁▁▁▁▁▁</text><text class="terminal-3163883764-r1" x="1525" y="752" textLength="12.2" clip-path="url(#terminal-3163883764-line-30)">
</text><text class="terminal-3163883764-r11" x="890.6" y="776.4" textLength="12.2" clip-path="url(#terminal-3163883764-line-31)">▊</text><text class="terminal-3163883764-r12" x="902.8" y="776.4" textLength="622.2" clip-path="url(#terminal-3163883764-line-31)">▔▔▔▔▔▔▔▔▔▔▔▔▔▔▔▔▔▔▔▔▔▔▔▔▔▔▔▔▔▔▔▔▔▔▔▔▔▔▔▔▔▔▔▔▔▔▔▔▔▔▔</text><text class="terminal-3163883764-r1" x="1525" y="776.4" textLength="12.2" clip-path="url(#terminal-3163883764-line-31)">
</text><text class="terminal-3163883764-r2" x="24.4" y="800.8" textLength="671" clip-path="url(#terminal-3163883764-line-32)">asdf://stsci.edu/datamodels/roman/schemas/wfi_wcs-1.1.0</text><text class="terminal-3163883764-r11" x="890.6" y="800.8" textLength="12.2" clip-path="url(#terminal-3163883764-line-32)">▊</text><text class="terminal-3163883764-r14" x="927.2" y="800.8" textLength="61" clip-path="url(#terminal-3163883764-line-32)">a.b.c</text><text class="terminal-3163883764-r1" x="1525" y="800.8" textLength="12.2" clip-path="url(#terminal-3163883764-line-32)">
</text><text class="terminal-3163883764-r11" x="890.6" y="825.2" textLength="12.2" clip-path="url(#terminal-3163883764-line-33)">▊</text><text class="terminal-3163883764-r12" x="902.8" y="825.2" textLength="622.2" clip-path="url(#terminal-3163883764-line-33)">▁▁▁▁▁▁▁▁▁▁▁▁▁▁▁▁▁▁▁▁▁▁▁▁▁▁▁▁▁▁▁▁▁▁▁▁▁▁▁▁▁▁▁▁▁▁▁▁▁▁▁</text><text class="terminal-3163883764-r1" x="1525" y="825.2" textLength="12.2" clip-path="url(#terminal-3163883764-line-33)">
</text><text class="terminal-3163883764-r1" x="1525" y="849.6" textLength="12.2" clip-path="url(#terminal-3163883764-line-34)">
</text><text class="terminal-3163883764-r1" x="1525" y="874" textLength="12.2" clip-path="url(#terminal-3163883764-line-35)">
</text><text class="terminal-3163883764-r1" x="1525" y="898.4" textLength="12.2" clip-path="url(#terminal-3163883764-line-36)">
</text><text class="terminal-3163883764-r1" x="1525" y="922.8" textLength="12.2" clip-path="url(#terminal-3163883764-line-37)">
</text><text class="terminal-3163883764-r1" x="1525" y="947.2" textLength="12.2" clip-path="url(#terminal-3163883764-line-38)">
</text><text class="terminal-3163883764-r1" x="1525" y="971.6" textLength="12.2" clip-path="url(#terminal-3163883764-line-39)">
</text><text class="terminal-3163883764-r1" x="1525" y="996" textLength="12.2" clip-path="url(#terminal-3163883764-line-40)">
</text><text class="terminal-3163883764-r1" x="1525" y="1020.4" textLength="12.2" clip-path="url(#terminal-3163883764-line-41)">
</text><text class="terminal-3163883764-r1" x="1525" y="1044.8" textLength="12.2" clip-path="url(#terminal-3163883764-line-42)">
</text><text class="terminal-3163883764-r1" x="1525" y="1069.2" textLength="12.2" clip-path="url(#terminal-3163883764-line-43)">
</text><text class="terminal-3163883764-r1" x="1525" y="1093.6" textLength="12.2" clip-path="url(#terminal-3163883764-line-44)">
</text><text class="terminal-3163883764-r1" x="1525" y="1118" textLength="12.2" clip-path="url(#terminal-3163883764-line-45)">
</text><text class="terminal-3163883764-r1" x="1525" y="1142.4" textLength="12.2" clip-path="url(#terminal-3163883764-line-46)">
</text><text class="terminal-3163883764-r1" x="1525" y="1166.8" textLength="12.2" clip-path="url(#terminal-3163883764-line-47)">
</text><text class="terminal-3163883764-r1" x="1525" y="1191.2" textLength="12.2" clip-path="url(#terminal-3163883764-line-48)">
</text><text class="terminal-3163883764-r1" x="1525" y="1215.6" textLength="12.2" clip-path="url(#terminal-3163883764-line-49)">
</text><text class="terminal-3163883764-r1" x="1525" y="1240" textLength="12.2" clip-path="url(#terminal-3163883764-line-50)">
</text><text class="terminal-3163883764-r1" x="1525" y="1264.4" textLength="12.2" clip-path="url(#terminal-3163883764-line-51)">
</text><text class="terminal-3163883764-r1" x="1525" y="1288.8" textLength="12.2" clip-path="url(#terminal-3163883764-line-52)">
</text><text class="terminal-3163883764-r1" x="1525" y="1313.2" textLength="12.2" clip-path="url(#terminal-3163883764-line-53)">
</text><text class="terminal-3163883764-r1" x="1525" y="1337.6" textLength="12.2" clip-path="url(#terminal-3163883764-line-54)">
</text><text class="terminal-3163883764-r1" x="1525" y="1362" textLength="12.2" clip-path="url(#terminal-3163883764-line-55)">
</text><text class="terminal-3163883764-r1" x="1525" y="1386.4" textLength="12.2" clip-path="url(#terminal-3163883764-line-56)">
</text><text class="terminal-3163883764-r1" x="1525" y="1410.8" textLength="12.2" clip-path="url(#terminal-3163883764-line-57)">
</text><text class="terminal-3163883764-r1" x="1525" y="1435.2" textLength="12.2" clip-path="url(#terminal-3163883764-line-58)">
</text><text class="terminal-3163883764-r1" x="1525" y="1459.6" textLength="12.2" clip-path="url(#terminal-3163883764-line-59)">
</text><text class="terminal-3163883764-r1" x="1525" y="1484" textLength="12.2" clip-path="url(#terminal-3163883764-line-60)">
</text>
    </g>
    </g>
</svg>
