<svg class="rich-terminal" viewBox="0 0 1543 1562.8" xmlns="http://www.w3.org/2000/svg">
    <!-- Generated with Rich https://www.textualize.io -->
    <style>

    @font-face {
        font-family: "Fira Code";
        src: local("FiraCode-Regular"),
                url("https://cdnjs.cloudflare.com/ajax/libs/firacode/6.2.0/woff2/FiraCode-Regular.woff2") format("woff2"),
                url("https://cdnjs.cloudflare.com/ajax/libs/firacode/6.2.0/woff/FiraCode-Regular.woff") format("woff");
        font-style: normal;
        font-weight: 400;
    }
    @font-face {
        font-family: "Fira Code";
        src: local("FiraCode-Bold"),
                url("https://cdnjs.cloudflare.com/ajax/libs/firacode/6.2.0/woff2/FiraCode-Bold.woff2") format("woff2"),
                url("https://cdnjs.cloudflare.com/ajax/libs/firacode/6.2.0/woff/FiraCode-Bold.woff") format("woff");
        font-style: bold;
        font-weight: 700;
    }

    .terminal-2585511131-matrix {
        font-family: Fira Code, monospace;
        font-size: 20px;
        line-height: 24.4px;
        font-variant-east-asian: full-width;
    }

    .terminal-2585511131-title {
        font-size: 18px;
        font-weight: bold;
        font-family: arial;
    }

    .terminal-2585511131-r1 { fill: #c5c8c6 }
.terminal-2585511131-r2 { fill: #e0e0e0 }
.terminal-2585511131-r3 { fill: #c5c6c7 }
.terminal-2585511131-r4 { fill: #447b53 }
.terminal-2585511131-r5 { fill: #e76580 }
.terminal-2585511131-r6 { fill: #193320;font-weight: bold }
.terminal-2585511131-r7 { fill: #ba4461;font-weight: bold }
.terminal-2585511131-r8 { fill: #084724 }
.terminal-2585511131-r9 { fill: #780028 }
.terminal-2585511131-r10 { fill: #004578 }
.terminal-2585511131-r11 { fill: #121212 }
.terminal-2585511131-r12 { fill: #191919 }
.terminal-2585511131-r13 { fill: #737373 }
.terminal-2585511131-r14 { fill: #141414 }
.terminal-2585511131-r15 { fill: #242f38 }
.terminal-2585511131-r16 { fill: #000f18 }
.terminal-2585511131-r17 { fill: #545454 }
.terminal-2585511131-r18 { fill: #a2a2a2 }
.terminal-2585511131-r19 { fill: #171717 }
    </style>

    <defs>
    <clipPath id="terminal-2585511131-clip-terminal">
      <rect x="0" y="0" width="1524.0" height="1511.8" />
    </clipPath>
    <clipPath id="terminal-2585511131-line-0">
    <rect x="0" y="1.5" width="1525" height="24.65"/>
            </clipPath>
<clipPath id="terminal-2585511131-line-1">
    <rect x="0" y="25.9" width="1525" height="24.65"/>
            </clipPath>
<clipPath id="terminal-2585511131-line-2">
    <rect x="0" y="50.3" width="1525" height="24.65"/>
            </clipPath>
<clipPath id="terminal-2585511131-line-3">
    <rect x="0" y="74.7" width="1525" height="24.65"/>
            </clipPath>
<clipPath id="terminal-2585511131-line-4">
    <rect x="0" y="99.1" width="1525" height="24.65"/>
            </clipPath>
<clipPath id="terminal-2585511131-line-5">
    <rect x="0" y="123.5" width="1525" height="24.65"/>
            </clipPath>
<clipPath id="terminal-2585511131-line-6">
    <rect x="0" y="147.9" width="1525" height="24.65"/>
            </clipPath>
<clipPath id="terminal-2585511131-line-7">
    <rect x="0" y="172.3" width="1525" height="24.65"/>
            </clipPath>
<clipPath id="terminal-2585511131-line-8">
    <rect x="0" y="196.7" width="1525" height="24.65"/>
            </clipPath>
<clipPath id="terminal-2585511131-line-9">
    <rect x="0" y="221.1" width="1525" height="24.65"/>
            </clipPath>
<clipPath id="terminal-2585511131-line-10">
    <rect x="0" y="245.5" width="1525" height="24.65"/>
            </clipPath>
<clipPath id="terminal-2585511131-line-11">
    <rect x="0" y="269.9" width="1525" height="24.65"/>
            </clipPath>
<clipPath id="terminal-2585511131-line-12">
    <rect x="0" y="294.3" width="1525" height="24.65"/>
            </clipPath>
<clipPath id="terminal-2585511131-line-13">
    <rect x="0" y="318.7" width="1525" height="24.65"/>
            </clipPath>
<clipPath id="terminal-2585511131-line-14">
    <rect x="0" y="343.1" width="1525" height="24.65"/>
            </clipPath>
<clipPath id="terminal-2585511131-line-15">
    <rect x="0" y="367.5" width="1525" height="24.65"/>
            </clipPath>
<clipPath id="terminal-2585511131-line-16">
    <rect x="0" y="391.9" width="1525" height="24.65"/>
            </clipPath>
<clipPath id="terminal-2585511131-line-17">
    <rect x="0" y="416.3" width="1525" height="24.65"/>
            </clipPath>
<clipPath id="terminal-2585511131-line-18">
    <rect x="0" y="440.7" width="1525" height="24.65"/>
            </clipPath>
<clipPath id="terminal-2585511131-line-19">
    <rect x="0" y="465.1" width="1525" height="24.65"/>
            </clipPath>
<clipPath id="terminal-2585511131-line-20">
    <rect x="0" y="489.5" width="1525" height="24.65"/>
            </clipPath>
<clipPath id="terminal-2585511131-line-21">
    <rect x="0" y="513.9" width="1525" height="24.65"/>
            </clipPath>
<clipPath id="terminal-2585511131-line-22">
    <rect x="0" y="538.3" width="1525" height="24.65"/>
            </clipPath>
<clipPath id="terminal-2585511131-line-23">
    <rect x="0" y="562.7" width="1525" height="24.65"/>
            </clipPath>
<clipPath id="terminal-2585511131-line-24">
    <rect x="0" y="587.1" width="1525" height="24.65"/>
            </clipPath>
<clipPath id="terminal-2585511131-line-25">
    <rect x="0" y="611.5" width="1525" height="24.65"/>
            </clipPath>
<clipPath id="terminal-2585511131-line-26">
    <rect x="0" y="635.9" width="1525" height="24.65"/>
            </clipPath>
<clipPath id="terminal-2585511131-line-27">
    <rect x="0" y="660.3" width="1525" height="24.65"/>
            </clipPath>
<clipPath id="terminal-2585511131-line-28">
    <rect x="0" y="684.7" width="1525" height="24.65"/>
            </clipPath>
<clipPath id="terminal-2585511131-line-29">
    <rect x="0" y="709.1" width="1525" height="24.65"/>
            </clipPath>
<clipPath id="terminal-2585511131-line-30">
    <rect x="0" y="733.5" width="1525" height="24.65"/>
            </clipPath>
<clipPath id="terminal-2585511131-line-31">
    <rect x="0" y="757.9" width="1525" height="24.65"/>
            </clipPath>
<clipPath id="terminal-2585511131-line-32">
    <rect x="0" y="782.3" width="1525" height="24.65"/>
            </clipPath>
<clipPath id="terminal-2585511131-line-33">
    <rect x="0" y="806.7" width="1525" height="24.65"/>
            </clipPath>
<clipPath id="terminal-2585511131-line-34">
    <rect x="0" y="831.1" width="1525" height="24.65"/>
            </clipPath>
<clipPath id="terminal-2585511131-line-35">
    <rect x="0" y="855.5" width="1525" height="24.65"/>
            </clipPath>
<clipPath id="terminal-2585511131-line-36">
    <rect x="0" y="879.9" width="1525" height="24.65"/>
            </clipPath>
<clipPath id="terminal-2585511131-line-37">
    <rect x="0" y="904.3" width="1525" height="24.65"/>
            </clipPath>
<clipPath id="terminal-2585511131-line-38">
    <rect x="0" y="928.7" width="1525" height="24.65"/>
            </clipPath>
<clipPath id="terminal-2585511131-line-39">
    <rect x="0" y="953.1" width="1525" height="24.65"/>
            </clipPath>
<clipPath id="terminal-2585511131-line-40">
    <rect x="0" y="977.5" width="1525" height="24.65"/>
            </clipPath>
<clipPath id="terminal-2585511131-line-41">
    <rect x="0" y="1001.9" width="1525" height="24.65"/>
            </clipPath>
<clipPath id="terminal-2585511131-line-42">
    <rect x="0" y="1026.3" width="1525" height="24.65"/>
            </clipPath>
<clipPath id="terminal-2585511131-line-43">
    <rect x="0" y="1050.7" width="1525" height="24.65"/>
            </clipPath>
<clipPath id="terminal-2585511131-line-44">
    <rect x="0" y="1075.1" width="1525" height="24.65"/>
            </clipPath>
<clipPath id="terminal-2585511131-line-45">
    <rect x="0" y="1099.5" width="1525" height="24.65"/>
            </clipPath>
<clipPath id="terminal-2585511131-line-46">
    <rect x="0" y="1123.9" width="1525" height="24.65"/>
            </clipPath>
<clipPath id="terminal-2585511131-line-47">
    <rect x="0" y="1148.3" width="1525" height="24.65"/>
            </clipPath>
<clipPath id="terminal-2585511131-line-48">
    <rect x="0" y="1172.7" width="1525" height="24.65"/>
            </clipPath>
<clipPath id="terminal-2585511131-line-49">
    <rect x="0" y="1197.1" width="1525" height="24.65"/>
            </clipPath>
<clipPath id="terminal-2585511131-line-50">
    <rect x="0" y="1221.5" width="1525" height="24.65"/>
            </clipPath>
<clipPath id="terminal-2585511131-line-51">
    <rect x="0" y="1245.9" width="1525" height="24.65"/>
            </clipPath>
<clipPath id="terminal-2585511131-line-52">
    <rect x="0" y="1270.3" width="1525" height="24.65"/>
            </clipPath>
<clipPath id="terminal-2585511131-line-53">
    <rect x="0" y="1294.7" width="1525" height="24.65"/>
            </clipPath>
<clipPath id="terminal-2585511131-line-54">
    <rect x="0" y="1319.1" width="1525" height="24.65"/>
            </clipPath>
<clipPath id="terminal-2585511131-line-55">
    <rect x="0" y="1343.5" width="1525" height="24.65"/>
            </clipPath>
<clipPath id="terminal-2585511131-line-56">
    <rect x="0" y="1367.9" width="1525" height="24.65"/>
            </clipPath>
<clipPath id="terminal-2585511131-line-57">
    <rect x="0" y="1392.3" width="1525" height="24.65"/>
            </clipPath>
<clipPath id="terminal-2585511131-line-58">
    <rect x="0" y="1416.7" width="1525" height="24.65"/>
            </clipPath>
<clipPath id="terminal-2585511131-line-59">
    <rect x="0" y="1441.1" width="1525" height="24.65"/>
            </clipPath>
<clipPath id="terminal-2585511131-line-60">
    <rect x="0" y="1465.5" width="1525" height="24.65"/>
            </clipPath>
    </defs>

    <rect fill="#292929" stroke="rgba(255,255,255,0.35)" stroke-width="1" x="1" y="1" width="1541" height="1560.8" rx="8"/><text class="terminal-2585511131-title" fill="#c5c8c6" text-anchor="middle" x="770" y="27">RadApp</text>
            <g transform="translate(26,22)">
            <circle cx="0" cy="0" r="7" fill="#ff5f57"/>
            <circle cx="22" cy="0" r="7" fill="#febc2e"/>
            <circle cx="44" cy="0" r="7" fill="#28c840"/>
            </g>

    <g transform="translate(9, 41)" clip-path="url(#terminal-2585511131-clip-terminal)">
    <rect fill="#242f38" x="0" y="1.5" width="12.2" height="24.65" shape-rendering="crispEdges"/><rect fill="#242f38" x="12.2" y="1.5" width="12.2" height="24.65" shape-rendering="crispEdges"/><rect fill="#242f38" x="24.4" y="1.5" width="61" height="24.65" shape-rendering="crispEdges"/><rect fill="#242f38" x="85.4" y="1.5" width="12.2" height="24.65" shape-rendering="crispEdges"/><rect fill="#242f38" x="97.6" y="1.5" width="610" height="24.65" shape-rendering="crispEdges"/><rect fill="#242f38" x="707.6" y="1.5" width="73.2" height="24.65" shape-rendering="crispEdges"/><rect fill="#242f38" x="780.8" y="1.5" width="622.2" height="24.65" shape-rendering="crispEdges"/><rect fill="#2c363f" x="1403" y="1.5" width="12.2" height="24.65" shape-rendering="crispEdges"/><rect fill="#2c363f" x="1415.2" y="1.5" width="97.6" height="24.65" shape-rendering="crispEdges"/><rect fill="#2c363f" x="1512.8" y="1.5" width="12.2" height="24.65" shape-rendering="crispEdges"/><rect fill="#121212" x="0" y="25.9" width="1525" height="24.65" shape-rendering="crispEdges"/><rect fill="#121212" x="0" y="50.3" width="1525" height="24.65" shape-rendering="crispEdges"/><rect fill="#121212" x="0" y="74.7" width="1525" height="24.65" shape-rendering="crispEdges"/><rect fill="#121212" x="0" y="99.1" width="1525" height="24.65" shape-rendering="crispEdges"/><rect fill="#121212" x="0" y="123.5" width="1525" height="24.65" shape-rendering="crispEdges"/><rect fill="#121212" x="0" y="147.9" width="1525" height="24.65" shape-rendering="crispEdges"/><rect fill="#121212" x="0" y="172.3" width="1525" height="24.65" shape-rendering="crispEdges"/><rect fill="#121212" x="0" y="196.7" width="1525" height="24.65" shape-rendering="crispEdges"/><rect fill="#121212" x="0" y="221.1" width="1525" height="24.65" shape-rendering="crispEdges"/><rect fill="#121212" x="0" y="245.5" width="1525" height="24.65" shape-rendering="crispEdges"/><rect fill="#121212" x="0" y="269.9" width="1525" height="24.65" shape-rendering="crispEdges"/><rect fill="#121212" x="0" y="294.3" width="1525" height="24.65" shape-rendering="crispEdges"/><rect fill="#121212" x="0" y="318.7" width="1525" height="24.65" shape-rendering="crispEdges"/><rect fill="#121212" x="0" y="343.1" width="1525" height="24.65" shape-rendering="crispEdges"/><rect fill="#2f6640" x="0" y="367.5" width="195.2" height="24.65" shape-rendering="crispEdges"/><rect fill="#ba4461" x="195.2" y="367.5" width="195.2" height="24.65" shape-rendering="crispEdges"/><rect fill="#121212" x="390.4" y="367.5" width="1134.6" height="24.65" shape-rendering="crispEdges"/><rect fill="#2f6640" x="0" y="391.9" width="48.8" height="24.65" shape-rendering="crispEdges"/><rect fill="#2f6640" x="48.8" y="391.9" width="97.6" height="24.65" shape-rendering="crispEdges"/><rect fill="#2f6640" x="146.4" y="391.9" width="48.8" height="24.65" shape-rendering="crispEdges"/><rect fill="#ba4461" x="195.2" y="391.9" width="48.8" height="24.65" shape-rendering="crispEdges"/><rect fill="#f6e6ea" x="244" y="391.9" width="97.6" height="24.65" shape-rendering="crispEdges"/><rect fill="#ba4461" x="341.6" y="391.9" width="48.8" height="24.65" shape-rendering="crispEdges"/><rect fill="#121212" x="390.4" y="391.9" width="1134.6" height="24.65" shape-rendering="crispEdges"/><rect fill="#2f6640" x="0" y="416.3" width="195.2" height="24.65" shape-rendering="crispEdges"/><rect fill="#ba4461" x="195.2" y="416.3" width="195.2" height="24.65" shape-rendering="crispEdges"/><rect fill="#121212" x="390.4" y="416.3" width="1134.6" height="24.65" shape-rendering="crispEdges"/><rect fill="#121212" x="0" y="440.7" width="1525" height="24.65" shape-rendering="crispEdges"/><rect fill="#121212" x="0" y="465.1" width="1525" height="24.65" shape-rendering="crispEdges"/><rect fill="#121212" x="0" y="489.5" width="1525" height="24.65" shape-rendering="crispEdges"/><rect fill="#121212" x="0" y="513.9" width="536.8" height="24.65" shape-rendering="crispEdges"/><rect fill="#121212" x="536.8" y="513.9" width="988.2" height="24.65" shape-rendering="crispEdges"/><rect fill="#121212" x="0" y="538.3" width="24.4" height="24.65" shape-rendering="crispEdges"/><rect fill="#121212" x="24.4" y="538.3" width="488" height="24.65" shape-rendering="crispEdges"/><rect fill="#121212" x="512.4" y="538.3" width="24.4" height="24.65" shape-rendering="crispEdges"/><rect fill="#121212" x="536.8" y="538.3" width="988.2" height="24.65" shape-rendering="crispEdges"/><rect fill="#121212" x="0" y="562.7" width="536.8" height="24.65" shape-rendering="crispEdges"/><rect fill="#121212" x="536.8" y="562.7" width="988.2" height="24.65" shape-rendering="crispEdges"/><rect fill="#121212" x="0" y="587.1" width="1525" height="24.65" shape-rendering="crispEdges"/><rect fill="#121212" x="0" y="611.5" width="1525" height="24.65" shape-rendering="crispEdges"/><rect fill="#121212" x="0" y="635.9" width="1525" height="24.65" shape-rendering="crispEdges"/><rect fill="#121212" x="0" y="660.3" width="207.4" height="24.65" shape-rendering="crispEdges"/><rect fill="#191919" x="207.4" y="660.3" width="12.2" height="24.65" shape-rendering="crispEdges"/><rect fill="#1e1e1e" x="219.6" y="660.3" width="1305.4" height="24.65" shape-rendering="crispEdges"/><rect fill="#121212" x="0" y="684.7" width="24.4" height="24.65" shape-rendering="crispEdges"/><rect fill="#121212" x="24.4" y="684.7" width="73.2" height="24.65" shape-rendering="crispEdges"/><rect fill="#121212" x="97.6" y="684.7" width="85.4" height="24.65" shape-rendering="crispEdges"/><rect fill="#121212" x="183" y="684.7" width="24.4" height="24.65" shape-rendering="crispEdges"/><rect fill="#191919" x="207.4" y="684.7" width="12.2" height="24.65" shape-rendering="crispEdges"/><rect fill="#1e1e1e" x="219.6" y="684.7" width="24.4" height="24.65" shape-rendering="crispEdges"/><rect fill="#1e1e1e" x="244" y="684.7" width="305" height="24.65" shape-rendering="crispEdges"/><rect fill="#1e1e1e" x="549" y="684.7" width="976" height="24.65" shape-rendering="crispEdges"/><rect fill="#121212" x="0" y="709.1" width="207.4" height="24.65" shape-rendering="crispEdges"/><rect fill="#191919" x="207.4" y="709.1" width="12.2" height="24.65" shape-rendering="crispEdges"/><rect fill="#1e1e1e" x="219.6" y="709.1" width="1305.4" height="24.65" shape-rendering="crispEdges"/><rect fill="#121212" x="0" y="733.5" width="207.4" height="24.65" shape-rendering="crispEdges"/><rect fill="#191919" x="207.4" y="733.5" width="12.2" height="24.65" shape-rendering="crispEdges"/><rect fill="#1e1e1e" x="219.6" y="733.5" width="1305.4" height="24.65" shape-rendering="crispEdges"/><rect fill="#121212" x="0" y="757.9" width="24.4" height="24.65" shape-rendering="crispEdges"/><rect fill="#121212" x="24.4" y="757.9" width="146.4" height="24.65" shape-rendering="crispEdges"/><rect fill="#121212" x="170.8" y="757.9" width="12.2" height="24.65" shape-rendering="crispEdges"/><rect fill="#121212" x="183" y="757.9" width="24.4" height="24.65" shape-rendering="crispEdges"/><rect fill="#191919" x="207.4" y="757.9" width="12.2" height="24.65" shape-rendering="crispEdges"/><rect fill="#1e1e1e" x="219.6" y="757.9" width="24.4" height="24.65" shape-rendering="crispEdges"/><rect fill="#1e1e1e" x="244" y="757.9" width="378.2" height="24.65" shape-rendering="crispEdges"/><rect fill="#1e1e1e" x="622.2" y="757.9" width="902.8" height="24.65" shape-rendering="crispEdges"/><rect fill="#121212" x="0" y="782.3" width="207.4" height="24.65" shape-rendering="crispEdges"/><rect fill="#191919" x="207.4" y="782.3" width="12.2" height="24.65" shape-rendering="crispEdges"/><rect fill="#1e1e1e" x="219.6" y="782.3" width="1305.4" height="24.65" shape-rendering="crispEdges"/><rect fill="#121212" x="0" y="806.7" width="1525" height="24.65" shape-rendering="crispEdges"/><rect fill="#121212" x="0" y="831.1" width="1525" height="24.65" shape-rendering="crispEdges"/><rect fill="#121212" x="0" y="855.5" width="1525" height="24.65" shape-rendering="crispEdges"/><rect fill="#191919" x="0" y="879.9" width="12.2" height="24.65" shape-rendering="crispEdges"/><rect fill="#1e1e1e" x="12.2" y="879.9" width="780.8" height="24.65" shape-rendering="crispEdges"/><rect fill="#121212" x="793" y="879.9" width="12.2" height="24.65" shape-rendering="crispEdges"/><rect fill="#141414" x="805.2" y="879.9" width="12.2" height="24.65" shape-rendering="crispEdges"/><rect fill="#171717" x="817.4" y="879.9" width="707.6" height="24.65" shape-rendering="crispEdges"/><rect fill="#191919" x="0" y="904.3" width="12.2" height="24.65" shape-rendering="crispEdges"/><rect fill="#1e1e1e" x="12.2" y="904.3" width="12.2" height="24.65" shape-rendering="crispEdges"/><rect fill="#153854" x="24.4" y="904.3" width="12.2" height="24.65" shape-rendering="crispEdges"/><rect fill="#242f38" x="36.6" y="904.3" width="12.2" height="24.65" shape-rendering="crispEdges"/><rect fill="#153854" x="48.8" y="904.3" width="12.2" height="24.65" shape-rendering="crispEdges"/><rect fill="#153854" x="61" y="904.3" width="12.2" height="24.65" shape-rendering="crispEdges"/><rect fill="#153854" x="73.2" y="904.3" width="683.2" height="24.65" shape-rendering="crispEdges"/><rect fill="#1e1e1e" x="756.4" y="904.3" width="24.4" height="24.65" shape-rendering="crispEdges"/><rect fill="#1e1e1e" x="780.8" y="904.3" width="12.2" height="24.65" shape-rendering="crispEdges"/><rect fill="#121212" x="793" y="904.3" width="12.2" height="24.65" shape-rendering="crispEdges"/><rect fill="#141414" x="805.2" y="904.3" width="12.2" height="24.65" shape-rendering="crispEdges"/><rect fill="#171717" x="817.4" y="904.3" width="24.4" height="24.65" shape-rendering="crispEdges"/><rect fill="#171717" x="841.8" y="904.3" width="195.2" height="24.65" shape-rendering="crispEdges"/><rect fill="#171717" x="1037" y="904.3" width="488" height="24.65" shape-rendering="crispEdges"/><rect fill="#191919" x="0" y="928.7" width="12.2" height="24.65" shape-rendering="crispEdges"/><rect fill="#1e1e1e" x="12.2" y="928.7" width="12.2" height="24.65" shape-rendering="crispEdges"/><rect fill="#1e1e1e" x="24.4" y="928.7" width="12.2" height="24.65" shape-rendering="crispEdges"/><rect fill="#242f38" x="36.6" y="928.7" width="12.2" height="24.65" shape-rendering="crispEdges"/><rect fill="#1e1e1e" x="48.8" y="928.7" width="12.2" height="24.65" shape-rendering="crispEdges"/><rect fill="#1e1e1e" x="61" y="928.7" width="12.2" height="24.65" shape-rendering="crispEdges"/><rect fill="#1e1e1e" x="73.2" y="928.7" width="707.6" height="24.65" shape-rendering="crispEdges"/><rect fill="#1e1e1e" x="780.8" y="928.7" width="12.2" height="24.65" shape-rendering="crispEdges"/><rect fill="#121212" x="793" y="928.7" width="12.2" height="24.65" shape-rendering="crispEdges"/><rect fill="#141414" x="805.2" y="928.7" width="12.2" height="24.65" shape-rendering="crispEdges"/><rect fill="#171717" x="817.4" y="928.7" width="24.4" height="24.65" shape-rendering="crispEdges"/><rect fill="#171717" x="841.8" y="928.7" width="683.2" height="24.65" shape-rendering="crispEdges"/><rect fill="#191919" x="0" y="953.1" width="12.2" height="24.65" shape-rendering="crispEdges"/><rect fill="#1e1e1e" x="12.2" y="953.1" width="780.8" height="24.65" shape-rendering="crispEdges"/><rect fill="#121212" x="793" y="953.1" width="12.2" height="24.65" shape-rendering="crispEdges"/><rect fill="#141414" x="805.2" y="953.1" width="12.2" height="24.65" shape-rendering="crispEdges"/><rect fill="#171717" x="817.4" y="953.1" width="707.6" height="24.65" shape-rendering="crispEdges"/><rect fill="#121212" x="0" y="977.5" width="1525" height="24.65" shape-rendering="crispEdges"/><rect fill="#121212" x="0" y="1001.9" width="1525" height="24.65" shape-rendering="crispEdges"/><rect fill="#121212" x="0" y="1026.3" width="1525" height="24.65" shape-rendering="crispEdges"/><rect fill="#121212" x="0" y="1050.7" width="134.2" height="24.65" shape-rendering="crispEdges"/><rect fill="#141414" x="134.2" y="1050.7" width="12.2" height="24.65" shape-rendering="crispEdges"/><rect fill="#171717" x="146.4" y="1050.7" width="97.6" height="24.65" shape-rendering="crispEdges"/><rect fill="#121212" x="244" y="1050.7" width="12.2" height="24.65" shape-rendering="crispEdges"/><rect fill="#121212" x="256.2" y="1050.7" width="1268.8" height="24.65" shape-rendering="crispEdges"/><rect fill="#121212" x="0" y="1075.1" width="24.4" height="24.65" shape-rendering="crispEdges"/><rect fill="#121212" x="24.4" y="1075.1" width="85.4" height="24.65" shape-rendering="crispEdges"/><rect fill="#121212" x="109.8" y="1075.1" width="24.4" height="24.65" shape-rendering="crispEdges"/><rect fill="#141414" x="134.2" y="1075.1" width="12.2" height="24.65" shape-rendering="crispEdges"/><rect fill="#171717" x="146.4" y="1075.1" width="24.4" height="24.65" shape-rendering="crispEdges"/><rect fill="#1e262c" x="170.8" y="1075.1" width="12.2" height="24.65" shape-rendering="crispEdges"/><rect fill="#1e262c" x="183" y="1075.1" width="12.2" height="24.65" shape-rendering="crispEdges"/><rect fill="#0a1216" x="195.2" y="1075.1" width="12.2" height="24.65" shape-rendering="crispEdges"/><rect fill="#0a1216" x="207.4" y="1075.1" width="12.2" height="24.65" shape-rendering="crispEdges"/><rect fill="#171717" x="219.6" y="1075.1" width="24.4" height="24.65" shape-rendering="crispEdges"/><rect fill="#121212" x="244" y="1075.1" width="12.2" height="24.65" shape-rendering="crispEdges"/><rect fill="#121212" x="256.2" y="1075.1" width="1268.8" height="24.65" shape-rendering="crispEdges"/><rect fill="#121212" x="0" y="1099.5" width="134.2" height="24.65" shape-rendering="crispEdges"/><rect fill="#141414" x="134.2" y="1099.5" width="12.2" height="24.65" shape-rendering="crispEdges"/><rect fill="#171717" x="146.4" y="1099.5" width="97.6" height="24.65" shape-rendering="crispEdges"/><rect fill="#121212" x="244" y="1099.5" width="12.2" height="24.65" shape-rendering="crispEdges"/><rect fill="#121212" x="256.2" y="1099.5" width="1268.8" height="24.65" shape-rendering="crispEdges"/><rect fill="#121212" x="0" y="1123.9" width="1525" height="24.65" shape-rendering="crispEdges"/><rect fill="#121212" x="0" y="1148.3" width="1525" height="24.65" shape-rendering="crispEdges"/><rect fill="#121212" x="0" y="1172.7" width="1525" height="24.65" shape-rendering="crispEdges"/><rect fill="#121212" x="0" y="1197.1" width="1525" height="24.65" shape-rendering="crispEdges"/><rect fill="#121212" x="0" y="1221.5" width="1525" height="24.65" shape-rendering="crispEdges"/><rect fill="#121212" x="0" y="1245.9" width="1525" height="24.65" shape-rendering="crispEdges"/><rect fill="#121212" x="0" y="1270.3" width="1525" height="24.65" shape-rendering="crispEdges"/><rect fill="#121212" x="0" y="1294.7" width="1525" height="24.65" shape-rendering="crispEdges"/><rect fill="#121212" x="0" y="1319.1" width="1525" height="24.65" shape-rendering="crispEdges"/><rect fill="#121212" x="0" y="1343.5" width="1525" height="24.65" shape-rendering="crispEdges"/><rect fill="#121212" x="0" y="1367.9" width="1525" height="24.65" shape-rendering="crispEdges"/><rect fill="#121212" x="0" y="1392.3" width="1525" height="24.65" shape-rendering="crispEdges"/><rect fill="#121212" x="0" y="1416.7" width="1525" height="24.65" shape-rendering="crispEdges"/><rect fill="#121212" x="0" y="1441.1" width="1525" height="24.65" shape-rendering="crispEdges"/><rect fill="#121212" x="0" y="1465.5" width="1525" height="24.65" shape-rendering="crispEdges"/><rect fill="#242f38" x="0" y="1489.9" width="97.6" height="24.65" shape-rendering="crispEdges"/><rect fill="#242f38" x="97.6" y="1489.9" width="244" height="24.65" shape-rendering="crispEdges"/><rect fill="#242f38" x="341.6" y="1489.9" width="219.6" height="24.65" shape-rendering="crispEdges"/><rect fill="#242f38" x="561.2" y="1489.9" width="817.4" height="24.65" shape-rendering="crispEdges"/><rect fill="#242f38" x="1378.6" y="1489.9" width="146.4" height="24.65" shape-rendering="crispEdges"/>
    <g class="terminal-2585511131-matrix">
    <text class="terminal-2585511131-r2" x="12.2" y="20" textLength="12.2" clip-path="url(#terminal-2585511131-line-0)">⭘</text><text class="terminal-2585511131-r2" x="707.6" y="20" textLength="73.2" clip-path="url(#terminal-2585511131-line-0)">RadApp</text><text class="terminal-2585511131-r3" x="1415.2" y="20" textLength="97.6" clip-path="url(#terminal-2585511131-line-0)">12:36:17</text><text class="terminal-2585511131-r1" x="1525" y="20" textLength="12.2" clip-path="url(#terminal-2585511131-line-0)">
</text><text class="terminal-2585511131-r1" x="1525" y="44.4" textLength="12.2" clip-path="url(#terminal-2585511131-line-1)">
</text><text class="terminal-2585511131-r1" x="1525" y="68.8" textLength="12.2" clip-path="url(#terminal-2585511131-line-2)">
</text><text class="terminal-2585511131-r1" x="1525" y="93.2" textLength="12.2" clip-path="url(#terminal-2585511131-line-3)">
</text><text class="terminal-2585511131-r1" x="1525" y="117.6" textLength="12.2" clip-path="url(#terminal-2585511131-line-4)">
</text><text class="terminal-2585511131-r1" x="1525" y="142" textLength="12.2" clip-path="url(#terminal-2585511131-line-5)">
</text><text class="terminal-2585511131-r1" x="1525" y="166.4" textLength="12.2" clip-path="url(#terminal-2585511131-line-6)">
</text><text class="terminal-2585511131-r1" x="1525" y="190.8" textLength="12.2" clip-path="url(#terminal-2585511131-line-7)">
</text><text class="terminal-2585511131-r1" x="1525" y="215.2" textLength="12.2" clip-path="url(#terminal-2585511131-line-8)">
</text><text class="terminal-2585511131-r1" x="1525" y="239.6" textLength="12.2" clip-path="url(#terminal-2585511131-line-9)">
</text><text class="terminal-2585511131-r1" x="1525" y="264" textLength="12.2" clip-path="url(#terminal-2585511131-line-10)">
</text><text class="terminal-2585511131-r1" x="1525" y="288.4" textLength="12.2" clip-path="url(#terminal-2585511131-line-11)">
</text><text class="terminal-2585511131-r1" x="1525" y="312.8" textLength="12.2" clip-path="url(#terminal-2585511131-line-12)">
</text><text class="terminal-2585511131-r1" x="1525" y="337.2" textLength="12.2" clip-path="url(#terminal-2585511131-line-13)">
</text><text class="terminal-2585511131-r1" x="1525" y="361.6" textLength="12.2" clip-path="url(#terminal-2585511131-line-14)">
</text><text class="terminal-2585511131-r4" x="0" y="386" textLength="195.2" clip-path="url(#terminal-2585511131-line-15)">▔▔▔▔▔▔▔▔▔▔▔▔▔▔▔▔</text><text class="terminal-2585511131-r5" x="195.2" y="386" textLength="195.2" clip-path="url(#terminal-2585511131-line-15)">▔▔▔▔▔▔▔▔▔▔▔▔▔▔▔▔</text><text class="terminal-2585511131-r1" x="1525" y="386" textLength="12.2" clip-path="url(#terminal-2585511131-line-15)">
</text><text class="terminal-2585511131-r6" x="48.8" y="410.4" textLength="97.6" clip-path="url(#terminal-2585511131-line-16)">&#160;Create&#160;</text><text class="terminal-2585511131-r7" x="244" y="410.4" textLength="97.6" clip-path="url(#terminal-2585511131-line-16)">&#160;Return&#160;</text><text class="terminal-2585511131-r1" x="1525" y="410.4" textLength="12.2" clip-path="url(#terminal-2585511131-line-16)">
</text><text class="terminal-2585511131-r8" x="0" y="434.8" textLength="195.2" clip-path="url(#terminal-2585511131-line-17)">▁▁▁▁▁▁▁▁▁▁▁▁▁▁▁▁</text><text class="terminal-2585511131-r9" x="195.2" y="434.8" textLength="195.2" clip-path="url(#terminal-2585511131-line-17)">▁▁▁▁▁▁▁▁▁▁▁▁▁▁▁▁</text><text class="terminal-2585511131-r1" x="1525" y="434.8" textLength="12.2" clip-path="url(#terminal-2585511131-line-17)">
</text><text class="terminal-2585511131-r1" x="1525" y="459.2" textLength="12.2" clip-path="url(#terminal-2585511131-line-18)">
</text><text class="terminal-2585511131-r10" x="0" y="483.6" textLength="1525" clip-path="url(#terminal-2585511131-line-19)">─────────────────────────────────────────────────────────────────────────────────────────────────────────────────────────────</text><text class="terminal-2585511131-r1" x="1525" y="483.6" textLength="12.2" clip-path="url(#terminal-2585511131-line-19)">
</text><text class="terminal-2585511131-r1" x="1525" y="508" textLength="12.2" clip-path="url(#terminal-2585511131-line-20)">
</text><text class="terminal-2585511131-r1" x="1525" y="532.4" textLength="12.2" clip-path="url(#terminal-2585511131-line-21)">
</text><text class="terminal-2585511131-r2" x="24.4" y="556.8" textLength="488" clip-path="url(#terminal-2585511131-line-22)">Please&#160;fill&#160;in&#160;the&#160;new&#160;resource&#160;details:</text><text class="terminal-2585511131-r1" x="1525" y="556.8" textLength="12.2" clip-path="url(#terminal-2585511131-line-22)">
</text><text class="terminal-2585511131-r1" x="1525" y="581.2" textLength="12.2" clip-path="url(#terminal-2585511131-line-23)">
</text><text class="terminal-2585511131-r1" x="1525" y="605.6" textLength="12.2" clip-path="url(#terminal-2585511131-line-24)">
</text><text class="terminal-2585511131-r10" x="0" y="630" textLength="1525" clip-path="url(#terminal-2585511131-line-25)">─────────────────────────────────────────────────────────────────────────────────────────────────────────────────────────────</text><text class="terminal-2585511131-r1" x="1525" y="630" textLength="12.2" clip-path="url(#terminal-2585511131-line-25)">
</text><text class="terminal-2585511131-r1" x="1525" y="654.4" textLength="12.2" clip-path="url(#terminal-2585511131-line-26)">
</text><text class="terminal-2585511131-r11" x="207.4" y="678.8" textLength="12.2" clip-path="url(#terminal-2585511131-line-27)">▊</text><text class="terminal-2585511131-r12" x="219.6" y="678.8" textLength="1305.4" clip-path="url(#terminal-2585511131-line-27)">▔▔▔▔▔▔▔▔▔▔▔▔▔▔▔▔▔▔▔▔▔▔▔▔▔▔▔▔▔▔▔▔▔▔▔▔▔▔▔▔▔▔▔▔▔▔▔▔▔▔▔▔▔▔▔▔▔▔▔▔▔▔▔▔▔▔▔▔▔▔▔▔▔▔▔▔▔▔▔▔▔▔▔▔▔▔▔▔▔▔▔▔▔▔▔▔▔▔▔▔▔▔▔▔▔▔▔</text><text class="terminal-2585511131-r1" x="1525" y="678.8" textLength="12.2" clip-path="url(#terminal-2585511131-line-27)">
</text><text class="terminal-2585511131-r2" x="24.4" y="703.2" textLength="73.2" clip-path="url(#terminal-2585511131-line-28)">Title:</text><text class="terminal-2585511131-r11" x="207.4" y="703.2" textLength="12.2" clip-path="url(#terminal-2585511131-line-28)">▊</text><text class="terminal-2585511131-r13" x="244" y="703.2" textLength="305" clip-path="url(#terminal-2585511131-line-28)">Title&#160;of&#160;the&#160;new&#160;resource</text><text class="terminal-2585511131-r1" x="1525" y="703.2" textLength="12.2" clip-path="url(#terminal-2585511131-line-28)">
</text><text class="terminal-2585511131-r11" x="207.4" y="727.6" textLength="12.2" clip-path="url(#terminal-2585511131-line-29)">▊</text><text class="terminal-2585511131-r12" x="219.6" y="727.6" textLength="1305.4" clip-path="url(#terminal-2585511131-line-29)">▁▁▁▁▁▁▁▁▁▁▁▁▁▁▁▁▁▁▁▁▁▁▁▁▁▁▁▁▁▁▁▁▁▁▁▁▁▁▁▁▁▁▁▁▁▁▁▁▁▁▁▁▁▁▁▁▁▁▁▁▁▁▁▁▁▁▁▁▁▁▁▁▁▁▁▁▁▁▁▁▁▁▁▁▁▁▁▁▁▁▁▁▁▁▁▁▁▁▁▁▁▁▁▁▁▁▁</text><text class="terminal-2585511131-r1" x="1525" y="727.6" textLength="12.2" clip-path="url(#terminal-2585511131-line-29)">
</text><text class="terminal-2585511131-r11" x="207.4" y="752" textLength="12.2" clip-path="url(#terminal-2585511131-line-30)">▊</text><text class="terminal-2585511131-r12" x="219.6" y="752" textLength="1305.4" clip-path="url(#terminal-2585511131-line-30)">▔▔▔▔▔▔▔▔▔▔▔▔▔▔▔▔▔▔▔▔▔▔▔▔▔▔▔▔▔▔▔▔▔▔▔▔▔▔▔▔▔▔▔▔▔▔▔▔▔▔▔▔▔▔▔▔▔▔▔▔▔▔▔▔▔▔▔▔▔▔▔▔▔▔▔▔▔▔▔▔▔▔▔▔▔▔▔▔▔▔▔▔▔▔▔▔▔▔▔▔▔▔▔▔▔▔▔</text><text class="terminal-2585511131-r1" x="1525" y="752" textLength="12.2" clip-path="url(#terminal-2585511131-line-30)">
</text><text class="terminal-2585511131-r2" x="24.4" y="776.4" textLength="146.4" clip-path="url(#terminal-2585511131-line-31)">Description:</text><text class="terminal-2585511131-r11" x="207.4" y="776.4" textLength="12.2" clip-path="url(#terminal-2585511131-line-31)">▊</text><text class="terminal-2585511131-r13" x="244" y="776.4" textLength="378.2" clip-path="url(#terminal-2585511131-line-31)">Description&#160;of&#160;the&#160;new&#160;resource</text><text class="terminal-2585511131-r1" x="1525" y="776.4" textLength="12.2" clip-path="url(#terminal-2585511131-line-31)">
</text><text class="terminal-2585511131-r11" x="207.4" y="800.8" textLength="12.2" clip-path="url(#terminal-2585511131-line-32)">▊</text><text class="terminal-2585511131-r12" x="219.6" y="800.8" textLength="1305.4" clip-path="url(#terminal-2585511131-line-32)">▁▁▁▁▁▁▁▁▁▁▁▁▁▁▁▁▁▁▁▁▁▁▁▁▁▁▁▁▁▁▁▁▁▁▁▁▁▁▁▁▁▁▁▁▁▁▁▁▁▁▁▁▁▁▁▁▁▁▁▁▁▁▁▁▁▁▁▁▁▁▁▁▁▁▁▁▁▁▁▁▁▁▁▁▁▁▁▁▁▁▁▁▁▁▁▁▁▁▁▁▁▁▁▁▁▁▁</text><text class="terminal-2585511131-r1" x="1525" y="800.8" textLength="12.2" clip-path="url(#terminal-2585511131-line-32)">
</text><text class="terminal-2585511131-r1" x="1525" y="825.2" textLength="12.2" clip-path="url(#terminal-2585511131-line-33)">
</text><text class="terminal-2585511131-r10" x="0" y="849.6" textLength="1525" clip-path="url(#terminal-2585511131-line-34)">─────────────────────────────────────────────────────────────────────────────────────────────────────────────────────────────</text><text class="terminal-2585511131-r1" x="1525" y="849.6" textLength="12.2" clip-path="url(#terminal-2585511131-line-34)">
</text><text class="terminal-2585511131-r1" x="1525" y="874" textLength="12.2" clip-path="url(#terminal-2585511131-line-35)">
</text><text class="terminal-2585511131-r11" x="0" y="898.4" textLength="12.2" clip-path="url(#terminal-2585511131-line-36)">▊</text><text class="terminal-2585511131-r12" x="12.2" y="898.4" textLength="780.8" clip-path="url(#terminal-2585511131-line-36)">▔▔▔▔▔▔▔▔▔▔▔▔▔▔▔▔▔▔▔▔▔▔▔▔▔▔▔▔▔▔▔▔▔▔▔▔▔▔▔▔▔▔▔▔▔▔▔▔▔▔▔▔▔▔▔▔▔▔▔▔▔▔▔▔</text><text class="terminal-2585511131-r12" x="793" y="898.4" textLength="12.2" clip-path="url(#terminal-2585511131-line-36)">▎</text><text class="terminal-2585511131-r11" x="805.2" y="898.4" textLength="12.2" clip-path="url(#terminal-2585511131-line-36)">▊</text><text class="terminal-2585511131-r14" x="817.4" y="898.4" textLength="707.6" clip-path="url(#terminal-2585511131-line-36)">▔▔▔▔▔▔▔▔▔▔▔▔▔▔▔▔▔▔▔▔▔▔▔▔▔▔▔▔▔▔▔▔▔▔▔▔▔▔▔▔▔▔▔▔▔▔▔▔▔▔▔▔▔▔▔▔▔▔</text><text class="terminal-2585511131-r1" x="1525" y="898.4" textLength="12.2" clip-path="url(#terminal-2585511131-line-36)">
</text><text class="terminal-2585511131-r11" x="0" y="922.8" textLength="12.2" clip-path="url(#terminal-2585511131-line-37)">▊</text><text class="terminal-2585511131-r15" x="24.4" y="922.8" textLength="12.2" clip-path="url(#terminal-2585511131-line-37)">▐</text><text class="terminal-2585511131-r16" x="36.6" y="922.8" textLength="12.2" clip-path="url(#terminal-2585511131-line-37)">●</text><text class="terminal-2585511131-r15" x="48.8" y="922.8" textLength="12.2" clip-path="url(#terminal-2585511131-line-37)">▌</text><text class="terminal-2585511131-r2" x="73.2" y="922.8" textLength="683.2" clip-path="url(#terminal-2585511131-line-37)">Schema&#160;uri&#160;&#160;:&#160;asdf://stsci.edu/datamodels/roman/schemas/</text><text class="terminal-2585511131-r12" x="793" y="922.8" textLength="12.2" clip-path="url(#terminal-2585511131-line-37)">▎</text><text class="terminal-2585511131-r11" x="805.2" y="922.8" textLength="12.2" clip-path="url(#terminal-2585511131-line-37)">▊</text><text class="terminal-2585511131-r17" x="841.8" y="922.8" textLength="195.2" clip-path="url(#terminal-2585511131-line-37)">new_schema-a.b.c</text><text class="terminal-2585511131-r1" x="1525" y="922.8" textLength="12.2" clip-path="url(#terminal-2585511131-line-37)">
</text><text class="terminal-2585511131-r11" x="0" y="947.2" textLength="12.2" clip-path="url(#terminal-2585511131-line-38)">▊</text><text class="terminal-2585511131-r15" x="24.4" y="947.2" textLength="12.2" clip-path="url(#terminal-2585511131-line-38)">▐</text><text class="terminal-2585511131-r16" x="36.6" y="947.2" textLength="12.2" clip-path="url(#terminal-2585511131-line-38)">●</text><text class="terminal-2585511131-r15" x="48.8" y="947.2" textLength="12.2" clip-path="url(#terminal-2585511131-line-38)">▌</text><text class="terminal-2585511131-r2" x="73.2" y="947.2" textLength="707.6" clip-path="url(#terminal-2585511131-line-38)">Manifest&#160;uri:&#160;asdf://stsci.edu/datamodels/roman/manifests/</text><text class="terminal-2585511131-r12" x="793" y="947.2" textLength="12.2" clip-path="url(#terminal-2585511131-line-38)">▎</text><text class="terminal-2585511131-r11" x="805.2" y="947.2" textLength="12.2" clip-path="url(#terminal-2585511131-line-38)">▊</text><text class="terminal-2585511131-r1" x="1525" y="947.2" textLength="12.2" clip-path="url(#terminal-2585511131-line-38)">
</text><text class="terminal-2585511131-r11" x="0" y="971.6" textLength="12.2" clip-path="url(#terminal-2585511131-line-39)">▊</text><text class="terminal-2585511131-r12" x="12.2" y="971.6" textLength="780.8" clip-path="url(#terminal-2585511131-line-39)">▁▁▁▁▁▁▁▁▁▁▁▁▁▁▁▁▁▁▁▁▁▁▁▁▁▁▁▁▁▁▁▁▁▁▁▁▁▁▁▁▁▁▁▁▁▁▁▁▁▁▁▁▁▁▁▁▁▁▁▁▁▁▁▁</text><text class="terminal-2585511131-r12" x="793" y="971.6" textLength="12.2" clip-path="url(#terminal-2585511131-line-39)">▎</text><text class="terminal-2585511131-r11" x="805.2" y="971.6" textLength="12.2" clip-path="url(#terminal-2585511131-line-39)">▊</text><text class="terminal-2585511131-r14" x="817.4" y="971.6" textLength="707.6" clip-path="url(#terminal-2585511131-line-39)">▁▁▁▁▁▁▁▁▁▁▁▁▁▁▁▁▁▁▁▁▁▁▁▁▁▁▁▁▁▁▁▁▁▁▁▁▁▁▁▁▁▁▁▁▁▁▁▁▁▁▁▁▁▁▁▁▁▁</text><text class="terminal-2585511131-r1" x="1525" y="971.6" textLength="12.2" clip-path="url(#terminal-2585511131-line-39)">
</text><text class="terminal-2585511131-r1" x="1525" y="996" textLength="12.2" clip-path="url(#terminal-2585511131-line-40)">
</text><text class="terminal-2585511131-r10" x="0" y="1020.4" textLength="1525" clip-path="url(#terminal-2585511131-line-41)">─────────────────────────────────────────────────────────────────────────────────────────────────────────────────────────────</text><text class="terminal-2585511131-r1" x="1525" y="1020.4" textLength="12.2" clip-path="url(#terminal-2585511131-line-41)">
</text><text class="terminal-2585511131-r1" x="1525" y="1044.8" textLength="12.2" clip-path="url(#terminal-2585511131-line-42)">
</text><text class="terminal-2585511131-r11" x="134.2" y="1069.2" textLength="12.2" clip-path="url(#terminal-2585511131-line-43)">▊</text><text class="terminal-2585511131-r14" x="146.4" y="1069.2" textLength="97.6" clip-path="url(#terminal-2585511131-line-43)">▔▔▔▔▔▔▔▔</text><text class="terminal-2585511131-r14" x="244" y="1069.2" textLength="12.2" clip-path="url(#terminal-2585511131-line-43)">▎</text><text class="terminal-2585511131-r1" x="1525" y="1069.2" textLength="12.2" clip-path="url(#terminal-2585511131-line-43)">
</text><text class="terminal-2585511131-r2" x="24.4" y="1093.6" textLength="85.4" clip-path="url(#terminal-2585511131-line-44)">Tagged:</text><text class="terminal-2585511131-r11" x="134.2" y="1093.6" textLength="12.2" clip-path="url(#terminal-2585511131-line-44)">▊</text><text class="terminal-2585511131-r14" x="244" y="1093.6" textLength="12.2" clip-path="url(#terminal-2585511131-line-44)">▎</text><text class="terminal-2585511131-r1" x="1525" y="1093.6" textLength="12.2" clip-path="url(#terminal-2585511131-line-44)">
</text><text class="terminal-2585511131-r11" x="134.2" y="1118" textLength="12.2" clip-path="url(#terminal-2585511131-line-45)">▊</text><text class="terminal-2585511131-r14" x="146.4" y="1118" textLength="97.6" clip-path="url(#terminal-2585511131-line-45)">▁▁▁▁▁▁▁▁</text><text class="terminal-2585511131-r14" x="244" y="1118" textLength="12.2" clip-path="url(#terminal-2585511131-line-45)">▎</text><text class="terminal-2585511131-r1" x="1525" y="1118" textLength="12.2" clip-path="url(#terminal-2585511131-line-45)">
</text><text class="terminal-2585511131-r1" x="1525" y="1142.4" textLength="12.2" clip-path="url(#terminal-2585511131-line-46)">
</text><text class="terminal-2585511131-r1" x="1525" y="1166.8" textLength="12.2" clip-path="url(#terminal-2585511131-line-47)">
</text><text class="terminal-2585511131-r1" x="1525" y="1191.2" textLength="12.2" clip-path="url(#terminal-2585511131-line-48)">
</text><text class="terminal-2585511131-r1" x="1525" y="1215.6" textLength="12.2" clip-path="url(#terminal-2585511131-line-49)">
</text><text class="terminal-2585511131-r1" x="1525" y="1240" textLength="12.2" clip-path="url(#terminal-2585511131-line-50)">
</text><text class="terminal-2585511131-r1" x="1525" y="1264.4" textLength="12.2" clip-path="url(#terminal-2585511131-line-51)">
</text><text class="terminal-2585511131-r1" x="1525" y="1288.8" textLength="12.2" clip-path="url(#terminal-2585511131-line-52)">
</text><text class="terminal-2585511131-r1" x="1525" y="1313.2" textLength="12.2" clip-path="url(#terminal-2585511131-line-53)">
</text><text class="terminal-2585511131-r1" x="1525" y="1337.6" textLength="12.2" clip-path="url(#terminal-2585511131-line-54)">
</text><text class="terminal-2585511131-r1" x="1525" y="1362" textLength="12.2" clip-path="url(#terminal-2585511131-line-55)">
</text><text class="terminal-2585511131-r1" x="1525" y="1386.4" textLength="12.2" clip-path="url(#terminal-2585511131-line-56)">
</text><text class="terminal-2585511131-r1" x="1525" y="1410.8" textLength="12.2" clip-path="url(#terminal-2585511131-line-57)">
</text><text class="terminal-2585511131-r1" x="1525" y="1435.2" textLength="12.2" clip-path="url(#terminal-2585511131-line-58)">
</text><text class="terminal-2585511131-r1" x="1525" y="1459.6" textLength="12.2" clip-path="url(#terminal-2585511131-line-59)">
</text><text class="terminal-2585511131-r1" x="1525" y="1484" textLength="12.2" clip-path="url(#terminal-2585511131-line-60)">
</text>
    </g>
    </g>
</svg>
